<svg xmlns="http://www.w3.org/2000/svg" class="svg-symbols">
  <defs>

    <symbol id="chevron-right" viewBox="0 0 407.436 407.436">
      <title>Right chevron</title>
      <path d="M112.814 0L91.566 21.178l181.946 182.54-181.946 182.54 21.248 21.178 203.055-203.718z"/>
    </symbol>

    <symbol id="chevron-left" viewBox="0 0 407.436 407.436">
      <title>Left chevron</title>
      <path d="M315.869 21.178L294.621 0 91.566 203.718l203.055 203.718 21.248-21.178-181.945-182.54z"/>
    </symbol>

    <symbol id="watching-eye" viewBox="0 0 512.001 512.001">
      <title>Watching eye</title>
      <path d="M503.698 231.895c-28.735-36.843-65.956-67.318-107.637-88.128-42.548-21.243-88.321-32.265-136.104-32.843-1.316-.036-6.6-.036-7.916 0-47.782.579-93.556 11.6-136.104 32.843-41.681 20.81-78.9 51.284-107.636 88.128a39.145 39.145 0 0 0 0 48.211c28.735 36.843 65.955 67.318 107.636 88.128 42.548 21.243 88.321 32.265 136.104 32.843 1.316.036 6.6.036 7.916 0 47.782-.579 93.556-11.6 136.104-32.843 41.681-20.81 78.901-51.284 107.637-88.128a39.145 39.145 0 0 0 0-48.211zM125.242 349.599c-38.92-19.432-73.678-47.892-100.517-82.303a18.344 18.344 0 0 1 0-22.591c26.838-34.411 61.596-62.871 100.517-82.303a293.777 293.777 0 0 1 33.839-14.33c-29.578 26.588-48.213 65.12-48.213 107.928 0 42.81 18.636 81.345 48.217 107.932a293.754 293.754 0 0 1-33.843-14.333zM256 380.303c-68.542 0-124.304-55.762-124.304-124.304S187.458 131.696 256 131.696 380.304 187.458 380.304 256 324.542 380.303 256 380.303zm231.275-113.008c-26.838 34.411-61.596 62.871-100.517 82.303a293.497 293.497 0 0 1-33.805 14.299c29.558-26.587 48.179-65.107 48.179-107.898 0-42.814-18.64-81.351-48.223-107.939a293.653 293.653 0 0 1 33.85 14.34c38.92 19.432 73.678 47.892 100.517 82.303a18.346 18.346 0 0 1-.001 22.592z"/>
      <path d="M256 202.804c-29.332 0-53.195 23.863-53.195 53.195s23.863 53.195 53.195 53.195 53.195-23.863 53.195-53.195c.001-29.332-23.862-53.195-53.195-53.195zm0 85.563c-17.847 0-32.368-14.519-32.368-32.368 0-17.848 14.519-32.367 32.368-32.367 17.847 0 32.367 14.519 32.367 32.367.001 17.849-14.52 32.368-32.367 32.368z"/>
    </symbol>

    <symbol id="user-icon" viewBox="0 0 1000 1000">
      <title>User icon</title>
      <g><path d="M500,990C229.4,990,10,770.6,10,500S229.4,10,500,10s490,219.4,490,490S770.6,990,500,990z M769,848.9c-45.2-104.1-148.2-177.4-269-177.4s-223.9,73.1-269.1,177.3C305.3,906.4,398.6,941,500,941C601.4,941,694.5,906.5,769,848.9L769,848.9z M647,451c0-81.2-65.8-147-147-147c-81.2,0-147,65.8-147,147c0,81.2,65.8,147,147,147C581.2,598,647,532.2,647,451z M500,59C256.5,59,59,256.5,59,500c0,123.8,51.1,235.5,133.3,315.6c44.8-91.8,129-160.8,231-184.2C353.2,601.6,304,532,304,451c0-108.2,87.8-196,196-196c108.2,0,196,87.8,196,196c0,81-49.2,150.6-119.3,180.4c102,23.3,186.1,92.4,231,184.2C889.8,735.6,941,623.8,941,500C941,256.5,743.5,59,500,59L500,59z"/></g>
    </symbol>

    <symbol id="system-tip" viewBox="0 0 422.688 422.688">
      <title>System tooltip</title>
      <g>
        <g>
          <path d="M294.318,49.615c-66.142-66.153-173.765-66.153-239.916,0c-66.156,66.142-66.156,173.77,0,239.911
            c63.874,63.883,166.428,66.058,232.972,6.562l13.44,13.445c-3.351,8.588-1.596,18.678,5.325,25.599l70.973,70.978
            c9.334,9.334,24.465,9.329,33.79,0c9.334-9.315,9.334-24.446,0-33.78l-70.973-70.973c-6.922-6.912-17.03-8.667-25.599-5.315
            l-13.451-13.46C360.399,216.039,358.206,113.486,294.318,49.615z M74.671,269.262c-54.969-54.969-54.969-144.406,0-199.375
            c54.969-54.974,144.418-54.969,199.387,0s54.969,144.411,0,199.38S129.641,324.23,74.671,269.262z"/>
          <g>
            <path d="M160.471,177.001l-4.033-60.479c-0.761-11.787-1.139-20.246-1.139-25.382c0-6.986,1.83-12.44,5.493-16.351
              c3.659-3.909,8.476-5.871,14.454-5.871c7.243,0,12.078,2.504,14.52,7.511c2.445,5.008,3.668,12.23,3.668,21.653
              c0,5.559-0.299,11.198-0.892,16.923l-5.423,62.25c-0.588,7.407-1.853,13.088-3.79,17.046c-1.937,3.958-5.134,5.934-9.596,5.934
              c-4.545,0-7.701-1.916-9.469-5.743C162.492,190.659,161.236,184.83,160.471,177.001z M174.491,260.082
              c-5.134,0-9.619-1.666-13.446-4.999c-3.832-3.313-5.745-7.971-5.745-13.945c0-5.217,1.83-9.655,5.493-13.314
              c3.664-3.673,8.144-5.488,13.441-5.488c5.302,0,9.833,1.834,13.581,5.488c3.738,3.659,5.619,8.098,5.619,13.314
              c0,5.891-1.895,10.521-5.685,13.89C183.965,258.406,179.541,260.082,174.491,260.082z"/>
          </g>
          <g>
            <rect x="88.346" y="361.885" width="172.047" height="19.116"/>
          </g>
          <g>
            <rect x="126.574" y="403.571" width="95.582" height="19.116"/>
          </g>
        </g>
      </g>
    </symbol>

    <symbol id="upload-icon" viewBox="0 0 20 17">
      <title>Upload icon</title>
      <path d="M10 0l-5.2 4.9h3.3v5.1h3.8v-5.1h3.3l-5.2-4.9zm9.3 11.5l-3.2-2.1h-2l3.4 2.6h-3.5c-.1 0-.2.1-.2.1l-.8 2.3h-6l-.8-2.2c-.1-.1-.1-.2-.2-.2h-3.6l3.4-2.6h-2l-3.2 2.1c-.4.3-.7 1-.6 1.5l.6 3.1c.1.5.7.9 1.2.9h16.3c.6 0 1.1-.4 1.3-.9l.6-3.1c.1-.5-.2-1.2-.7-1.5z"/>
    </symbol>

    <symbol id="checkmark-icon" viewBox="0 0 490.05 490.05">
      <title>Checkmark icon</title>
      <g>
        <path d="M418.275,418.275c95.7-95.7,95.7-250.8,0-346.5s-250.8-95.7-346.5,0s-95.7,250.8,0,346.5S322.675,513.975,418.275,418.275
          z M157.175,207.575l55.1,55.1l120.7-120.6l42.7,42.7l-120.6,120.6l-42.8,42.7l-42.7-42.7l-55.1-55.1L157.175,207.575z"/>
      </g>
    </symbol>
  </defs>
</svg>
