<svg xmlns="http://www.w3.org/2000/svg" class="svg-symbols">
  <defs>
    <symbol id="hamburger" viewBox="16 19 18 12">
      <style>.st0{fill:#fff}</style>
      <switch>
        <g>
          <path d="M16 24h18v2H16zM16 29h18v2H16zM16 19h18v2H16z" class="st0"></path>
        </g>
      </switch>
    </symbol>

    <symbol id="tilted-ax" viewBox="0 0 501.398 501.398">
      <path d="M497.403 418.023l-298.667-288c-4.423-3.891-11.163-3.461-15.054.962a10.667 10.667 0 0 0 .121 14.227l-17.067 17.067c-4.356-3.966-11.102-3.65-15.068.706a10.667 10.667 0 0 0-.121 14.227l288 298.667a10.667 10.667 0 0 0 7.68 3.264c29.455 0 53.333-23.878 53.333-53.333a10.66 10.66 0 0 0-3.157-7.787z" fill="#455a64"/>
      <path d="M252.552 68.236l-42.667-42.667a10.667 10.667 0 0 0-14.507-.533c12.295-9.707-114.207 107.675-183.106 107.675-5.891 0-8.625 3.087-8.625 8.978 0 39.168 89.053 131.197 135.282 131.197 5.891 0 10.401-4.328 10.401-10.219 0-40.043 72.217-143.254 101.337-181.355 3.143-4.23 5.593-9.331 1.885-13.076z" fill="#cfd8dc"/>
      <path d="M138.667 277.37C92.438 277.37 0 177.871 0 138.703c0-5.891 4.776-10.667 10.667-10.667 63.744 0 183.829-103.04 185.024-104.085a10.668 10.668 0 0 1 14.507.533l42.667 42.667a10.667 10.667 0 0 1 .939 14.016c-29.056 38.016-104.533 145.472-104.533 185.6-.036 5.841-4.763 10.568-10.604 10.603zm-115.2-129.067c11.947 32 71.467 95.04 105.877 106.069 10.539-53.333 79.915-149.333 101.888-178.688L202.048 46.5c-26.645 22.016-116.16 92.651-178.581 101.803z"/>
      <path d="M448 480.036a10.667 10.667 0 0 1-7.68-3.264l-275.84-286.08c-4.238-4.091-2.555-10.551 1.537-14.789 4.092-4.238 9.041-4.651 13.279-.56.188.182.369.37.544.565l272.427 282.518a32.47 32.47 0 0 0 27.456-27.456L189.504 151.076c-4.247-4.088-4.376-10.846-.288-15.093s10.846-4.376 15.093-.288l293.825 283.328a10.667 10.667 0 0 1 3.264 7.68c-.152 29.392-23.941 53.182-53.333 53.333H448z"/>
    </symbol>

    <symbol id="chevron-right" viewBox="0 0 407.436 407.436">
      <title>Right chevron</title>
      <path d="M112.814 0L91.566 21.178l181.946 182.54-181.946 182.54 21.248 21.178 203.055-203.718z"/>
    </symbol>

    <symbol id="chevron-left" viewBox="0 0 407.436 407.436">
      <title>Left chevron</title>
      <path d="M315.869 21.178L294.621 0 91.566 203.718l203.055 203.718 21.248-21.178-181.945-182.54z"/>
    </symbol>

    <symbol id="watching-eye" viewBox="0 0 512.001 512.001">
      <title>Watching eye</title>
      <path d="M503.698 231.895c-28.735-36.843-65.956-67.318-107.637-88.128-42.548-21.243-88.321-32.265-136.104-32.843-1.316-.036-6.6-.036-7.916 0-47.782.579-93.556 11.6-136.104 32.843-41.681 20.81-78.9 51.284-107.636 88.128a39.145 39.145 0 0 0 0 48.211c28.735 36.843 65.955 67.318 107.636 88.128 42.548 21.243 88.321 32.265 136.104 32.843 1.316.036 6.6.036 7.916 0 47.782-.579 93.556-11.6 136.104-32.843 41.681-20.81 78.901-51.284 107.637-88.128a39.145 39.145 0 0 0 0-48.211zM125.242 349.599c-38.92-19.432-73.678-47.892-100.517-82.303a18.344 18.344 0 0 1 0-22.591c26.838-34.411 61.596-62.871 100.517-82.303a293.777 293.777 0 0 1 33.839-14.33c-29.578 26.588-48.213 65.12-48.213 107.928 0 42.81 18.636 81.345 48.217 107.932a293.754 293.754 0 0 1-33.843-14.333zM256 380.303c-68.542 0-124.304-55.762-124.304-124.304S187.458 131.696 256 131.696 380.304 187.458 380.304 256 324.542 380.303 256 380.303zm231.275-113.008c-26.838 34.411-61.596 62.871-100.517 82.303a293.497 293.497 0 0 1-33.805 14.299c29.558-26.587 48.179-65.107 48.179-107.898 0-42.814-18.64-81.351-48.223-107.939a293.653 293.653 0 0 1 33.85 14.34c38.92 19.432 73.678 47.892 100.517 82.303a18.346 18.346 0 0 1-.001 22.592z"/>
      <path d="M256 202.804c-29.332 0-53.195 23.863-53.195 53.195s23.863 53.195 53.195 53.195 53.195-23.863 53.195-53.195c.001-29.332-23.862-53.195-53.195-53.195zm0 85.563c-17.847 0-32.368-14.519-32.368-32.368 0-17.848 14.519-32.367 32.368-32.367 17.847 0 32.367 14.519 32.367 32.367.001 17.849-14.52 32.368-32.367 32.368z"/>
    </symbol>

    <symbol id="twitter-share-icon" viewBox="0 0 291.319 291.319">
      <path fill="#26a6d1" d="M145.659 0c80.45 0 145.66 65.219 145.66 145.66 0 80.45-65.21 145.659-145.66 145.659S0 226.109 0 145.66C0 65.219 65.21 0 145.659 0z"/>
      <path fill="#fff" d="M236.724 98.129c-6.363 2.749-13.21 4.597-20.392 5.435 7.338-4.27 12.964-11.016 15.613-19.072a71.965 71.965 0 0 1-22.55 8.366c-6.473-6.691-15.695-10.87-25.909-10.87-19.591 0-35.486 15.413-35.486 34.439 0 2.704.31 5.335.919 7.857-29.496-1.438-55.66-15.158-73.157-35.996a33.46 33.46 0 0 0-4.807 17.315c0 11.944 6.263 22.504 15.786 28.668-5.826-.182-11.289-1.721-16.086-4.315v.437c0 16.696 12.235 30.616 28.476 33.784a36.707 36.707 0 0 1-9.35 1.211c-2.285 0-4.506-.209-6.673-.619 4.515 13.692 17.625 23.651 33.165 23.925-12.153 9.249-27.457 14.748-44.089 14.748-2.868 0-5.69-.164-8.476-.482 15.722 9.777 34.367 15.485 54.422 15.485 65.292 0 100.997-52.51 100.997-98.029l-.1-4.461a70.838 70.838 0 0 0 17.697-17.826z"/>
    </symbol>

    <symbol id="close-icon" viewBox="0 0 50 50">
      <style>
        .st1{fill:#fff}
      </style>
      <switch>
        <g>
          <circle cx="25" cy="25" r="19" fill="#2cb1d8"/>
          <path d="M24 12.3h2v25.5h-2z" class="st1" transform="rotate(-45.001 25.002 25)"/>
          <path d="M12.3 24h25.5v2H12.3z" class="st1" transform="rotate(-45.001 25 25)"/>
        </g>
      </switch>
    </symbol>

    <symbol id="user-icon" viewBox="0 0 1000 1000">
      <title>User icon</title>
      <g><path d="M500,990C229.4,990,10,770.6,10,500S229.4,10,500,10s490,219.4,490,490S770.6,990,500,990z M769,848.9c-45.2-104.1-148.2-177.4-269-177.4s-223.9,73.1-269.1,177.3C305.3,906.4,398.6,941,500,941C601.4,941,694.5,906.5,769,848.9L769,848.9z M647,451c0-81.2-65.8-147-147-147c-81.2,0-147,65.8-147,147c0,81.2,65.8,147,147,147C581.2,598,647,532.2,647,451z M500,59C256.5,59,59,256.5,59,500c0,123.8,51.1,235.5,133.3,315.6c44.8-91.8,129-160.8,231-184.2C353.2,601.6,304,532,304,451c0-108.2,87.8-196,196-196c108.2,0,196,87.8,196,196c0,81-49.2,150.6-119.3,180.4c102,23.3,186.1,92.4,231,184.2C889.8,735.6,941,623.8,941,500C941,256.5,743.5,59,500,59L500,59z"/></g>
    </symbol>

    <symbol id="system-tip" viewBox="0 0 422.688 422.688">
      <title>System tooltip</title>
      <g>
        <g>
          <path d="M294.318,49.615c-66.142-66.153-173.765-66.153-239.916,0c-66.156,66.142-66.156,173.77,0,239.911
            c63.874,63.883,166.428,66.058,232.972,6.562l13.44,13.445c-3.351,8.588-1.596,18.678,5.325,25.599l70.973,70.978
            c9.334,9.334,24.465,9.329,33.79,0c9.334-9.315,9.334-24.446,0-33.78l-70.973-70.973c-6.922-6.912-17.03-8.667-25.599-5.315
            l-13.451-13.46C360.399,216.039,358.206,113.486,294.318,49.615z M74.671,269.262c-54.969-54.969-54.969-144.406,0-199.375
            c54.969-54.974,144.418-54.969,199.387,0s54.969,144.411,0,199.38S129.641,324.23,74.671,269.262z"/>
          <g>
            <path d="M160.471,177.001l-4.033-60.479c-0.761-11.787-1.139-20.246-1.139-25.382c0-6.986,1.83-12.44,5.493-16.351
              c3.659-3.909,8.476-5.871,14.454-5.871c7.243,0,12.078,2.504,14.52,7.511c2.445,5.008,3.668,12.23,3.668,21.653
              c0,5.559-0.299,11.198-0.892,16.923l-5.423,62.25c-0.588,7.407-1.853,13.088-3.79,17.046c-1.937,3.958-5.134,5.934-9.596,5.934
              c-4.545,0-7.701-1.916-9.469-5.743C162.492,190.659,161.236,184.83,160.471,177.001z M174.491,260.082
              c-5.134,0-9.619-1.666-13.446-4.999c-3.832-3.313-5.745-7.971-5.745-13.945c0-5.217,1.83-9.655,5.493-13.314
              c3.664-3.673,8.144-5.488,13.441-5.488c5.302,0,9.833,1.834,13.581,5.488c3.738,3.659,5.619,8.098,5.619,13.314
              c0,5.891-1.895,10.521-5.685,13.89C183.965,258.406,179.541,260.082,174.491,260.082z"/>
          </g>
          <g>
            <rect x="88.346" y="361.885" width="172.047" height="19.116"/>
          </g>
          <g>
            <rect x="126.574" y="403.571" width="95.582" height="19.116"/>
          </g>
        </g>
      </g>
    </symbol>

    <symbol id="upload-icon" viewBox="0 0 20 17">
      <title>Upload icon</title>
      <path d="M10 0l-5.2 4.9h3.3v5.1h3.8v-5.1h3.3l-5.2-4.9zm9.3 11.5l-3.2-2.1h-2l3.4 2.6h-3.5c-.1 0-.2.1-.2.1l-.8 2.3h-6l-.8-2.2c-.1-.1-.1-.2-.2-.2h-3.6l3.4-2.6h-2l-3.2 2.1c-.4.3-.7 1-.6 1.5l.6 3.1c.1.5.7.9 1.2.9h16.3c.6 0 1.1-.4 1.3-.9l.6-3.1c.1-.5-.2-1.2-.7-1.5z"/>
    </symbol>


    <symbol id="checkmark-icon" viewBox="0 0 490.05 490.05">
      <title>Checkmark icon</title>
      <g>
        <path d="M418.275,418.275c95.7-95.7,95.7-250.8,0-346.5s-250.8-95.7-346.5,0s-95.7,250.8,0,346.5S322.675,513.975,418.275,418.275
          z M157.175,207.575l55.1,55.1l120.7-120.6l42.7,42.7l-120.6,120.6l-42.8,42.7l-42.7-42.7l-55.1-55.1L157.175,207.575z"/>
      </g>
    </symbol>

    <symbol id="defender-shield-icon" viewBox="0 0 32 32">
      <switch><path d="M20.6 23.2l-3.3 2.9c-.7.6-1.8.6-2.6 0l-3.3-2.9c-2.5-2.2-3.9-5.4-3.9-8.7V6.2c0-.4.5-.7.9-.4 2 1.5 4.8 1.5 6.8 0l.2-.1c.4-.3 1-.3 1.4 0l.2.1c2 1.5 4.8 1.5 6.8 0 .4-.3.9 0 .9.4v8.4c-.2 3.3-1.6 6.4-4.1 8.6z" fill="#2cb1d8"/></switch>
    </symbol>

    <symbol id="challenger-hatchet-icon" viewBox="0 0 32 32">
      <style>
        .st0{fill:#2cb1d8}
      </style>
      <path class="st0" d="M.5 25.4c-.7-.8-.7-1.9.1-2.6L15.3 8.6c.8-.7 1.9-.7 2.7.1.7.7.7 1.9-.1 2.7L3.2 25.5c-.8.7-1.9.7-2.7-.1z"/>
      <path class="st0" d="M20.1 26l-.4-4.8c-.3-2.5-1.3-4.8-3-6.6l-4.1-4.3c-.4-.4-.3-1 0-1.3l2.9-2.8c.4-.4 1-.3 1.3 0l4.1 4.3c1.7 1.8 4 3 6.4 3.3l4.7.6-.1.2c-1.8 5.7-6.2 9.9-11.8 11.4z"/>
    </symbol>

    <symbol id="notification-icon" viewBox="0 0 50 50">
      <style>
        .st0{fill:#ffffff}
      </style>
      <path class="st0" d="M25,16c-6,0-12.2,3.6-15,9c2.8,5.4,9,9,15,9c6,0,12.2-3.6,15-9C37.2,19.6,31,16,25,16z M25,32.2 c-4,0-7.2-3.2-7.2-7.2s3.2-7.2,7.2-7.2c4,0,7.2,3.2,7.2,7.2S29,32.2,25,32.2z"/>
      <circle class="st0" cx="25" cy="25" r="3.2"/>
    </symbol>

    <symbol id="search-icon" viewBox="0 0 50 50">
      <switch>
        <path d="M15.4,32.7l2.1-2.1c0,0,0,0,0,0l2.6-2.6c-1-1.3-1.5-3-1.5-4.7c0-4.5,3.7-8.2,8.2-8.2s8.2,3.7,8.2,8.2 s-3.7,8.2-8.2,8.2c-1.8,0-3.4-0.6-4.7-1.5l-4.8,4.8c-0.3,0.3-0.6,0.4-1,0.4c-0.3,0-0.7-0.1-1-0.4C14.9,34.1,14.9,33.2,15.4,32.7z M33.4,23.2c0-3.6-2.9-6.6-6.6-6.6s-6.6,2.9-6.6,6.6s2.9,6.6,6.6,6.6S33.4,26.8,33.4,23.2z" fill="#fff"/>
      </switch>
    </symbol>
  </defs>
</svg>
