<svg id="Layer_1" xmlns="http://www.w3.org/2000/svg" viewBox="0 0 160 160">
  <style>
    .st0{fill:#004064}.st1{fill:#2cb1d8}.st2{fill:none}.st3{fill:#fff}.st6{fill:#ff4671}.st7{fill:#00da8c}.st8{fill:#a3006c}
  </style>
  <switch>
    <g>
      <path class="st0" d="M34.9,137.3c0-0.5,0-1-0.2-1.5c-0.1-0.4-0.4-0.7-0.7-0.7c-0.6,0-0.8,0.6-0.8,1.5c0,0.5,0.2,1,0.6,1.6 c0.3,0.6,0.8,1.2,1.2,1.8c0.5,0.8,1,1.5,1.4,2.3c0.4,0.8,0.7,1.5,0.7,2.4c0,1-0.2,2-0.6,2.6c-0.5,0.7-1.2,1.2-2.4,1.2 c-1.4,0-2.2-0.5-2.7-1.4c-0.5-0.8-0.6-1.9-0.6-3l2.2-0.2c0,0.6,0,1.3,0.2,1.7c0.1,0.5,0.4,0.8,0.9,0.8c0.7,0,0.9-0.7,0.9-1.7 c0-0.5-0.2-1.1-0.6-1.7c-0.2-0.3-0.4-0.6-0.6-0.9c-0.4-0.6-0.9-1.3-1.4-2.1c-0.5-0.8-0.9-1.5-1.1-2.3c-0.1-0.4-0.2-0.8-0.2-1.2 c0-0.8,0.2-1.7,0.7-2.4c0.5-0.7,1.2-1.1,2.2-1.1c1.3,0,2.1,0.5,2.5,1.3c0.4,0.8,0.6,1.8,0.6,2.7L34.9,137.3z"/>
      <path class="st0" d="M50.2,145.3c0,0.3-0.1,0.7-0.2,1.2c-0.1,0.2-0.2,0.4-0.3,0.7c0.2,0.2,0.5,0.5,0.9,0.5v1.9 c-1.3,0-1.9-0.5-2.3-1.2c-0.3,0.1-0.7,0.2-1.1,0.2c-0.7,0-1.3-0.2-1.7-0.5c-0.4-0.3-0.7-0.7-0.9-1.1c-0.2-0.5-0.3-1-0.4-1.6 v-8.9c0-0.6,0.1-1.2,0.4-1.6c0.2-0.4,0.5-0.8,0.9-1.1c0.4-0.3,1-0.5,1.7-0.5s1.3,0.2,1.7,0.5c0.4,0.3,0.7,0.7,0.9,1.1 c0.2,0.5,0.3,1,0.4,1.6V145.3z M48,136.4c0-0.4-0.1-0.7-0.3-0.9c-0.1-0.1-0.3-0.2-0.5-0.2c-0.4,0-0.6,0.3-0.7,0.6 c-0.1,0.2-0.1,0.3-0.1,0.6v8.9c0,0.4,0.1,0.7,0.3,0.9c0.1,0.1,0.2,0.2,0.4,0.2c0.4,0,0.6-0.2,0.7-0.6c0.1-0.1,0.1-0.3,0.1-0.6 V136.4z"/>
      <path class="st0" d="M63.8,133.3v12c0,0.6-0.1,1.2-0.4,1.6c-0.2,0.4-0.5,0.8-0.9,1.1c-0.4,0.3-1,0.5-1.7,0.5 c-0.7,0-1.3-0.2-1.7-0.5c-0.4-0.3-0.7-0.7-0.9-1.1c-0.2-0.5-0.3-1-0.4-1.6v-12h2.2v12c0,0.4,0.1,0.7,0.3,0.9 c0.1,0.1,0.2,0.2,0.4,0.2c0.4,0,0.6-0.2,0.7-0.6c0.1-0.1,0.1-0.3,0.1-0.6v-12H63.8z"/>
      <path class="st0" d="M71,148.4l2.3-15.1H76l2.3,15.1h-2.2l-0.4-3.1h-2.1l-0.4,3.1H71z M74.8,138.2l-0.1-0.4h-0.1l-0.1,0.4 l-0.6,4.8h1.5L74.8,138.2z"/>
      <path class="st0" d="M85.5,148.4v-15.1h2c1.3,0,2.3,0.2,3,0.9s1,1.6,1,3.1c0,0.7-0.1,1.3-0.3,1.7c-0.2,0.5-0.6,0.9-1.1,1.4 c0.6,0.3,1,0.9,1.3,1.8c0.2,0.5,0.2,1.1,0.2,1.8c0,1.1-0.2,2.1-0.7,2.9s-1.4,1.3-2.7,1.4H85.5z M87.7,139.5c0.2,0,0.6,0,1-0.2 c0.4-0.2,0.7-0.7,0.7-1.8c0-1-0.3-1.5-0.7-1.8c-0.4-0.2-0.8-0.2-1-0.2V139.5z M87.7,146.2c0.2,0,0.6,0,1-0.2 c0.4-0.3,0.7-0.9,0.7-2.1s-0.3-1.8-0.7-2.1c-0.4-0.3-0.8-0.2-1-0.2V146.2z"/>
      <path class="st0" d="M99.1,148.4v-15.1h2c1.3,0,2.3,0.2,3,0.9s1,1.6,1,3.1c0,0.7-0.1,1.3-0.3,1.7c-0.2,0.5-0.6,0.9-1.1,1.4 c0.6,0.3,1,0.9,1.3,1.8c0.2,0.5,0.2,1.1,0.2,1.8c0,1.1-0.2,2.1-0.7,2.9s-1.4,1.3-2.7,1.4H99.1z M101.3,139.5c0.2,0,0.6,0,1-0.2 s0.7-0.7,0.7-1.8c0-1-0.3-1.5-0.7-1.8c-0.4-0.2-0.8-0.2-1-0.2V139.5z M101.3,146.2c0.2,0,0.6,0,1-0.2s0.7-0.9,0.7-2.1 s-0.3-1.8-0.7-2.1c-0.4-0.3-0.8-0.2-1-0.2V146.2z"/>
      <path class="st0" d="M112.7,133.3h2.2v13h2.9v2.1h-5.2V133.3z"/>
      <path class="st0" d="M124.9,133.3h5.1v2.3h-2.9v4h2.1v2.4h-2.1v4.1h2.9v2.3h-5.1V133.3z"/>
      <g>
        <path class="st1" d="M13.1,126.6l-3.2-15H9V110h4.7v1.5h-1.4l2.6,12.8l3-14.4h2.3l3,14.4l2.6-12.8h-1.4V110h4.7v1.5h-0.9 l-3.1,15h-3.4l-2.5-12l-2.5,12H13.1z"/>
        <path class="st1" d="M35.2,126.6c-0.8-0.3-1.5-0.6-1.9-1.1c-0.5-0.4-0.8-1-1.1-1.8c-0.3-0.8-0.4-1.6-0.5-2.3 c-0.1-0.8-0.1-1.8-0.1-3c0-0.8,0-1.6,0.1-2.2c0-0.6,0.1-1.2,0.2-1.9c0.1-0.6,0.3-1.2,0.4-1.6c0.2-0.4,0.4-0.8,0.8-1.2 c0.3-0.4,0.7-0.7,1.2-1c0.5-0.2,1-0.4,1.7-0.6c0.7-0.1,1.4-0.2,2.2-0.2c1.2,0,2.2,0.1,3,0.4c0.8,0.3,1.5,0.6,1.9,1.1 s0.8,1,1.1,1.8c0.3,0.8,0.4,1.6,0.5,2.3c0.1,0.8,0.1,1.8,0.1,3c0,1,0,1.8-0.1,2.5s-0.2,1.4-0.3,2.1c-0.2,0.7-0.4,1.3-0.7,1.7 c-0.3,0.5-0.7,0.9-1.2,1.2c-0.5,0.4-1.1,0.6-1.8,0.8c-0.7,0.2-1.6,0.2-2.5,0.2C37,127,36,126.8,35.2,126.6z M40.1,124.7 c0.5-0.2,0.9-0.5,1.2-0.8c0.3-0.3,0.5-0.8,0.7-1.4c0.2-0.6,0.3-1.2,0.3-1.8c0.1-0.6,0.1-1.4,0.1-2.3s0-1.7-0.1-2.3 c-0.1-0.6-0.2-1.2-0.3-1.8s-0.4-1.1-0.7-1.4c-0.3-0.3-0.7-0.6-1.2-0.8s-1.2-0.3-1.9-0.3c-0.8,0-1.4,0.1-1.9,0.3 c-0.5,0.2-0.9,0.5-1.2,0.8c-0.3,0.3-0.5,0.8-0.7,1.4c-0.2,0.6-0.3,1.2-0.3,1.8s-0.1,1.4-0.1,2.3c0,0.9,0,1.7,0.1,2.3 c0,0.6,0.2,1.2,0.3,1.8c0.2,0.6,0.4,1.1,0.7,1.4c0.3,0.3,0.7,0.6,1.2,0.8c0.5,0.2,1.2,0.3,1.9,0.3 C38.9,125,39.5,124.9,40.1,124.7z"/>
        <path class="st1" d="M48.4,110h1.4H55c0.9,0,1.7,0.1,2.3,0.3c0.7,0.2,1.2,0.4,1.5,0.7c0.4,0.3,0.6,0.7,0.8,1.1 c0.2,0.5,0.3,0.9,0.4,1.3c0.1,0.4,0.1,0.9,0.1,1.5c0,0.6,0,1.1-0.1,1.5c-0.1,0.4-0.2,0.8-0.4,1.3c-0.2,0.4-0.5,0.8-0.8,1.1 c-0.4,0.3-0.9,0.5-1.4,0.7c0.3,0.3,0.7,0.8,0.9,1.4l1.8,4.1h1.4v1.5h-3.2l-2.3-5.4c-0.2-0.5-0.5-0.9-0.8-1s-0.8-0.3-1.4-0.3 h-1.7v5.2h1.3v1.5h-5v-1.5h1.4v-13.5h-1.4V110z M54.9,118c0.6,0,1.1-0.1,1.5-0.2s0.7-0.4,0.9-0.7c0.2-0.3,0.3-0.6,0.4-0.9 c0.1-0.3,0.1-0.7,0.1-1.2c0-1-0.2-1.8-0.5-2.3c-0.4-0.5-1.1-0.8-2.3-0.8h-2.8v6.2H54.9z"/>
        <path class="st1" d="M72.6,125.1h1.1l-3.9-6h-1.7v6h1.3v1.5h-5v-1.5h1.4v-13.5h-1.4V110h4.9v1.5h-1.2v5.7H70l3.5-5.7h-1.2V110 h4.9v1.5H76l-4.2,6.7l4.5,6.8h1.3v1.5h-4.9V125.1z"/>
        <path class="st1" d="M84.1,120.6v4.5h1.8v1.5h-5.5v-1.5h1.4v-13.5h-1.4V110h1.4h5.1c1.1,0,2,0.1,2.7,0.4s1.2,0.7,1.6,1.2 c0.3,0.5,0.5,1.1,0.7,1.6c0.1,0.5,0.2,1.2,0.2,2c0,0.8-0.1,1.4-0.2,2c-0.1,0.6-0.3,1.1-0.7,1.6s-0.8,0.9-1.6,1.2 s-1.6,0.4-2.7,0.4H84.1z M86.6,118.7c0.6,0,1.2-0.1,1.6-0.2c0.4-0.2,0.7-0.4,0.9-0.7c0.2-0.3,0.3-0.7,0.4-1 c0.1-0.4,0.1-0.8,0.1-1.4c0-1.2-0.2-2-0.6-2.6s-1.2-0.8-2.4-0.8h-2.5v6.8H86.6z"/>
        <path class="st1" d="M95.2,110h5.5v1.5h-1.8v13.2h4.8v-2.2h1.7v4H95.2v-1.5h1.4v-13.5h-1.4V110z"/>
        <path class="st1" d="M115.7,110l4.9,15h1.1v1.5H117v-1.5h1.4l-1.2-3.5h-6.1l-1.1,3.5h1.4v1.5h-4.7v-1.5h1l4.9-15H115.7z M111.7,119.7h4.9l-2.5-7.5L111.7,119.7z"/>
        <path class="st1" d="M135.7,110v5.4h-1.7c-0.1-1.3-0.4-2.3-1-2.9c-0.6-0.6-1.5-0.9-2.8-0.9c-0.7,0-1.3,0.1-1.8,0.3 c-0.5,0.2-0.9,0.5-1.2,0.8s-0.5,0.8-0.7,1.4c-0.2,0.6-0.3,1.2-0.3,1.9s-0.1,1.4-0.1,2.4c0,1,0,1.8,0.1,2.4s0.1,1.2,0.3,1.8 c0.2,0.6,0.4,1.1,0.7,1.4c0.3,0.3,0.7,0.6,1.2,0.8c0.5,0.2,1.2,0.3,1.9,0.3c1.3,0,2.2-0.3,2.7-0.9c0.5-0.6,0.8-1.5,0.8-2.7 l1.9,0.1c-0.1,0.9-0.2,1.7-0.3,2.2c-0.2,0.6-0.4,1.2-0.8,1.7s-0.9,0.9-1.6,1.2c-0.7,0.2-1.6,0.4-2.6,0.4 c-0.8,0-1.5-0.1-2.2-0.2c-0.6-0.1-1.2-0.3-1.6-0.5c-0.5-0.2-0.8-0.5-1.2-0.9c-0.3-0.4-0.6-0.8-0.8-1.2c-0.2-0.4-0.3-1-0.5-1.6 c-0.1-0.6-0.2-1.3-0.2-1.9c0-0.6-0.1-1.3-0.1-2.2c0-1.2,0-2.2,0.1-3c0.1-0.8,0.3-1.6,0.5-2.4c0.3-0.8,0.6-1.4,1.1-1.8 c0.5-0.4,1.1-0.8,1.8-1c0.8-0.3,1.7-0.4,2.7-0.4c1.8,0,3.1,0.6,3.9,1.7V110H135.7z"/>
        <path class="st1" d="M139.3,125.1h1.4v-13.5h-1.4V110h11.2v4h-1.7v-2.1H143v5.4h6v1.9h-6v5.7h6.2v-2.2h1.7v4h-11.7V125.1z"/>
      </g>
      <g>
        <circle class="st2" cx="80" cy="65.2" r="34.4"/>
        <ellipse transform="matrix(0.2242 -0.9745 0.9745 0.2242 -1.471 128.544)" class="st0" cx="80" cy="65.2" rx="10.3" ry="10.3"/>
        <path class="st3" d="M73.1,53.1V58c0,1.4,1.2,2.6,2.6,2.6c0.9,0,1.7-0.5,2.2-1.2c0.5,0.7,1.3,1.2,2.2,1.2 c0.9,0,1.7-0.5,2.2-1.2c0.5,0.7,1.3,1.2,2.2,1.2c1.4,0,2.6-1.2,2.6-2.6v-4.9H73.1z"/>
        <path class="st3" d="M86.9,77.3v-4.9c0-1.4-1.2-2.6-2.6-2.6c-0.9,0-1.7,0.5-2.2,1.2c-0.5-0.7-1.3-1.2-2.2-1.2 c-0.9,0-1.7,0.5-2.2,1.2c-0.5-0.7-1.3-1.2-2.2-1.2c-1.4,0-2.6,1.2-2.6,2.6v4.9H86.9z"/>
        <g>
          <path d="M105.4,42.1l-9,2.8l-1.2,22.7l7.3,7l11.7-5.6C105.2,63.2,101.6,52,105.4,42.1z" fill="#ffdf00"/>
          <path d="M98.9,59.1c-2.1-6.6,0.7-13.7,6.5-17c-2.7-3-6-5.5-9.8-7.5C78.7,26,58,32.7,49.4,49.6 c-8.6,16.9-1.9,37.6,15,46.2c16.9,8.6,37.6,1.9,46.2-15c1.9-3.8,3.1-7.8,3.5-11.8C107.5,69.7,101,65.7,98.9,59.1z M83.3,75.4 c-5.6,1.8-11.7-1.3-13.5-6.9C68,62.9,71.1,56.8,76.7,55c5.6-1.8,11.7,1.3,13.5,6.9C92,67.5,88.9,73.5,83.3,75.4z" fill="#f1b24c"/>
          <path class="st6" d="M106.7,67.8c-3.6-1.6-6.5-4.7-7.8-8.7c-1.3-4-0.8-8.2,1.2-11.7c-0.9-2-1.6-4.1-3.3-5.3 c-2.3-1.7-5.9-1.1-8.6-2c-2.7-0.9-5.2-3.5-8.2-3.5c-2.8,0-5.3,2.6-8.2,3.5c-2.8,0.9-6.4,0.3-8.7,2c-2.4,1.7-2.9,5.3-4.5,7.6 c-1.7,2.3-4.9,3.9-5.8,6.7c-0.9,2.7,0.8,5.9,0.8,8.8c0,2.8-1.7,6-0.8,8.8c0.9,2.8,4.2,4.4,5.8,6.7c1.7,2.4,2.2,5.9,4.5,7.6 c2.3,1.7,5.9,1.1,8.6,2c2.7,0.9,5.2,3.5,8.2,3.5c2.8,0,5.3-2.6,8.2-3.5c2.8-0.9,6.4-0.3,8.7-2c2.4-1.7,2.9-5.3,4.5-7.6 c1.7-2.3,4.9-3.9,5.8-6.7C107.8,72.1,107.2,69.9,106.7,67.8z M83,74.4c-5.1,1.6-10.5-1.1-12.2-6.2C69.2,63.1,72,57.7,77,56 c5.1-1.6,10.5,1.1,12.2,6.2C90.8,67.3,88,72.7,83,74.4z"/>
          <circle class="st3" cx="87.3" cy="48.5" r="4.4"/>
          <circle class="st0" cx="87.5" cy="49.3" r="2.1"/>
          <circle class="st3" cx="72.7" cy="48.5" r="4.4"/>
          <circle class="st0" cx="72.5" cy="49.3" r="2.1"/>
          <polygon class="st6" points="66.9 45 66.9 46.1 77.8 50.2 78.7 50.2 78.7 42.1"/>
          <polygon class="st6" points="93.1 45 93.1 46.1 82.2 50.2 81.3 50.2 81.3 42.1"/>
          <g>
            <path class="st7" d="M96.6,48.7c0.6,1.9-0.4,3.9-2.3,4.5c-0.6,0.2-1.3-0.1-1.5-0.8c-0.2-0.6,0.1-1.3,0.8-1.5 c0.6-0.2,0.9-0.8,0.7-1.4c-0.2-0.6,0.1-1.3,0.8-1.5S96.4,48.1,96.6,48.7z"/>
            <path class="st1" d="M56,59.9c-0.6-1.9,0.4-3.9,2.3-4.5c0.6-0.2,1.3,0.1,1.5,0.8c0.2,0.6-0.1,1.3-0.8,1.5 c-0.6,0.2-0.9,0.8-0.7,1.4c0.2,0.6-0.1,1.3-0.8,1.5C57,60.9,56.3,60.5,56,59.9z"/>
            <path class="st7" d="M66.7,45.4c0.1,2-1.4,3.6-3.4,3.7c-0.7,0-1.3-0.5-1.3-1.2s0.5-1.3,1.2-1.3c0.6,0,1.1-0.5,1-1.2 c0-0.7,0.5-1.3,1.2-1.3C66.1,44.2,66.7,44.7,66.7,45.4z"/>
            <path class="st7" d="M66.5,63.6c-1.8-0.8-2.6-2.9-1.8-4.7c0.3-0.6,1-0.9,1.6-0.6c0.6,0.3,0.9,1,0.6,1.6 c-0.2,0.6,0,1.2,0.6,1.5c0.6,0.3,0.9,1,0.6,1.6S67.1,63.9,66.5,63.6z"/>
            <path class="st1" d="M95.9,62.3c-1.9,0.6-2.9,2.6-2.3,4.5c0.2,0.6,0.9,1,1.5,0.8c0.6-0.2,1-0.9,0.8-1.5 c-0.2-0.6,0.1-1.2,0.7-1.4c0.6-0.2,1-0.9,0.8-1.5S96.6,62.1,95.9,62.3z"/>
            <path class="st7" d="M95.6,71.4c-1.8-0.7-3.9,0.1-4.6,2c-0.3,0.6,0,1.3,0.7,1.6c0.6,0.3,1.3,0,1.6-0.7 c0.2-0.6,0.9-0.8,1.4-0.6c0.6,0.3,1.3,0,1.6-0.7C96.6,72.3,96.3,71.6,95.6,71.4z"/>
            <path class="st7" d="M95.2,87.3c1.9-0.6,2.9-2.6,2.3-4.5c-0.2-0.6-0.9-1-1.5-0.8c-0.6,0.2-1,0.9-0.8,1.5 c0.2,0.6-0.1,1.2-0.7,1.4c-0.6,0.2-1,0.9-0.8,1.5S94.5,87.5,95.2,87.3z"/>
            <path class="st1" d="M95.5,78.2c1.8,0.7,3.9-0.1,4.6-2c0.3-0.6,0-1.3-0.7-1.6c-0.6-0.3-1.3,0-1.6,0.7 c-0.2,0.6-0.9,0.8-1.4,0.6c-0.6-0.3-1.3,0-1.6,0.7C94.5,77.2,94.8,78,95.5,78.2z"/>
            <path class="st1" d="M82.9,45.4c1.8,0.7,3.9-0.1,4.6-2c0.3-0.6,0-1.3-0.7-1.6c-0.6-0.3-1.3,0-1.6,0.7 c-0.2,0.6-0.9,0.8-1.4,0.6c-0.6-0.3-1.3,0-1.6,0.7C82,44.4,82.3,45.1,82.9,45.4z"/>
            <path class="st7" d="M57.9,69.6c-1.9,0.6-2.9,2.6-2.3,4.5c0.2,0.6,0.9,1,1.5,0.8c0.6-0.2,1-0.9,0.8-1.5 c-0.2-0.6,0.1-1.2,0.7-1.4c0.6-0.2,1-0.9,0.8-1.5C59.2,69.7,58.6,69.4,57.9,69.6z"/>
            <path class="st1" d="M66.3,77.9c-0.6-1.9-2.6-2.9-4.5-2.3c-0.6,0.2-1,0.9-0.8,1.5s0.9,1,1.5,0.8c0.6-0.2,1.2,0.1,1.4,0.7 c0.2,0.6,0.9,1,1.5,0.8C66.1,79.3,66.5,78.6,66.3,77.9z"/>
            <path class="st1" d="M66.5,68.7c-1.8-0.7-3.9,0.1-4.6,2c-0.3,0.6,0,1.3,0.7,1.6c0.6,0.3,1.3,0,1.6-0.7 c0.2-0.6,0.9-0.8,1.4-0.6c0.6,0.3,1.3,0,1.6-0.7C67.4,69.7,67.1,69,66.5,68.7z"/>
            <path class="st1" d="M88.7,84.3c-0.6-1.9-2.6-2.9-4.5-2.3c-0.6,0.2-1,0.9-0.8,1.5c0.2,0.6,0.9,1,1.5,0.8 c0.6-0.2,1.2,0.1,1.4,0.7c0.2,0.6,0.9,1,1.5,0.8C88.6,85.6,89,84.9,88.7,84.3z"/>
            <path class="st7" d="M79.7,84c0.7-1.8-0.1-3.9-2-4.6c-0.6-0.3-1.3,0-1.6,0.7c-0.3,0.6,0,1.3,0.7,1.6c0.6,0.2,0.8,0.9,0.6,1.4 c-0.3,0.6,0,1.3,0.7,1.6C78.7,84.9,79.4,84.6,79.7,84z"/>
            <path class="st7" d="M63.7,83.6c0.6,1.9,2.6,2.9,4.5,2.3c0.6-0.2,1-0.9,0.8-1.5c-0.2-0.6-0.9-1-1.5-0.8 c-0.6,0.2-1.2-0.1-1.4-0.7c-0.2-0.6-0.9-1-1.5-0.8C63.9,82.2,63.5,82.9,63.7,83.6z"/>
            <path class="st8" d="M94.2,59.3c-1.9,0.6-3.9-0.4-4.5-2.3c-0.2-0.6,0.1-1.3,0.8-1.5c0.6-0.2,1.3,0.1,1.5,0.8 c0.2,0.6,0.8,0.9,1.4,0.7c0.6-0.2,1.3,0.1,1.5,0.8C95.2,58.4,94.9,59,94.2,59.3z"/>
            <path class="st8" d="M66.4,55.6c-1.9,0.6-3.9-0.5-4.4-2.4c-0.2-0.7,0.2-1.3,0.8-1.5c0.7-0.2,1.3,0.2,1.5,0.8 c0.2,0.6,0.8,0.9,1.4,0.7c0.7-0.2,1.3,0.2,1.5,0.8C67.4,54.7,67.1,55.4,66.4,55.6z"/>
            <path class="st8" d="M103,70.2c-0.6-1.9-2.6-2.9-4.5-2.3c-0.6,0.2-1,0.9-0.8,1.5c0.2,0.6,0.9,1,1.5,0.8 c0.6-0.2,1.2,0.1,1.4,0.7c0.2,0.6,0.9,1,1.5,0.8S103.3,70.9,103,70.2z"/>
            <path class="st8" d="M88.1,79.3c0.6,1.9,2.6,2.9,4.5,2.3c0.6-0.2,1-0.9,0.8-1.5s-0.9-1-1.5-0.8c-0.6,0.2-1.2-0.1-1.4-0.7 c-0.2-0.6-0.9-1-1.5-0.8C88.2,78,87.9,78.7,88.1,79.3z"/>
            <path class="st8" d="M77.1,45.4c-1.8,0.7-3.9-0.1-4.6-2c-0.3-0.6,0-1.3,0.7-1.6c0.6-0.3,1.3,0,1.6,0.7 c0.2,0.6,0.9,0.8,1.4,0.6c0.6-0.3,1.3,0,1.6,0.7C78,44.4,77.7,45.1,77.1,45.4z"/>
            <path class="st8" d="M80.8,91.4c1.9-0.6,2.9-2.6,2.3-4.5c-0.2-0.6-0.9-1-1.5-0.8s-1,0.9-0.8,1.5c0.2,0.6-0.1,1.2-0.7,1.4 c-0.6,0.2-1,0.9-0.8,1.5S80.1,91.6,80.8,91.4z"/>
            <path class="st8" d="M60,67c1.8-0.8,2.7-2.9,1.9-4.7c-0.3-0.6-1-0.9-1.6-0.7c-0.6,0.3-0.9,1-0.7,1.6c0.2,0.6,0,1.2-0.6,1.4 c-0.6,0.3-0.9,1-0.7,1.6C58.6,67,59.4,67.3,60,67z"/>
            <path class="st8" d="M71.7,76.4c-1.9,0.6-2.9,2.6-2.3,4.5c0.2,0.6,0.9,1,1.5,0.8s1-0.9,0.8-1.5c-0.2-0.6,0.1-1.2,0.7-1.4 c0.6-0.2,1-0.9,0.8-1.5C73,76.6,72.3,76.2,71.7,76.4z"/>
            <path class="st1" d="M72.8,83.8c-0.7,1.8,0.1,3.9,2,4.6c0.6,0.3,1.3,0,1.6-0.7c0.3-0.6,0-1.3-0.7-1.6 c-0.6-0.2-0.8-0.9-0.6-1.4c0.3-0.6,0-1.3-0.7-1.6C73.8,82.9,73.1,83.2,72.8,83.8z"/>
          </g>
        </g>
      </g>
      <rect class="st2" width="160" height="160"/>
    </g>
  </switch>
</svg>
