<svg id="Layer_1" xmlns="http://www.w3.org/2000/svg" viewBox="0 0 160 160">
  <style>
    .st0{fill:#a0631c}.st1{fill:#f1b24c}.st2{fill:#fff}.st3{fill:#004064}.st4{fill:#2cb1d8}
  </style>
  <switch>
    <g>
      <path class="st0" d="M91.3,64.7c-7.6-14.1-4.9-31.8,6.6-42.9c0.5-0.5,1.4-0.5,1.9,0c0.5,0.5,0.5,1.4,0,1.9 C89.2,34,86.7,50.4,93.7,63.4L91.3,64.7z"/>
      <path class="st1" d="M113.6,66.5l-4.9-4.8L84.8,78l2.6,6.3c2.8,6.7,9.6,10.8,16.7,9.9c0.2,0,0.3,0,0.5-0.1 c2.7-0.4,5.5,0,7.9,1.1l0.2,0.1c0.9,0.4,2-0.3,1.9-1.3l0-0.2c-0.2-2.7,0.5-5.4,1.8-7.8c0.1-0.1,0.2-0.3,0.2-0.4 C120.1,79.4,118.8,71.5,113.6,66.5z"/>
      <path class="st0" d="M101.1,56.8L83,69.1c-3,2-3.7,6.1-1.7,9l0,0c0.9,1.3,2.6,1.6,3.8,0.7l24.2-16.5c1.3-0.9,1.6-2.6,0.7-3.8 v0C108.1,55.6,104,54.8,101.1,56.8z"/>
      <rect x="103.7" y="83" transform="matrix(0.8276 -0.5613 0.5613 0.8276 -30.2414 73.9878)" class="st2" width="3.3" height="6.4"/>
      <path class="st2" d="M112.9,85c1.2-1,1.5-2.9,0.6-4.2c-0.9-1.4-2.7-1.8-4.1-1L112.9,85z"/>
      <path class="st2" d="M101.4,85.1c-1.2,1-1.5,2.9-0.6,4.2c0.9,1.4,2.7,1.8,4.1,1L101.4,85.1z"/>
      <rect x="107.3" y="80.6" transform="matrix(0.8277 -0.5612 0.5612 0.8277 -28.2787 75.5618)" class="st2" width="3.3" height="6.4"/>
      <g>
        <circle class="st2" cx="105.7" cy="72.8" r="4.3"/>
        <circle class="st3" cx="104.4" cy="74.7" r="2"/>
        <g>
          <circle class="st2" cx="96.3" cy="79.2" r="4.3"/>
          <circle class="st3" cx="94" cy="79.2" r="2"/>
        </g>
        <polygon class="st1" points="98 71.7 89.8 77.3 90.9 78.9 101.9 77.5 107.3 67.7 106.3 66.1"/>
      </g>
      <path class="st0" d="M62.6,59.7c-0.2,0-0.3,0-0.5-0.1c-0.7-0.3-1.1-1-0.8-1.7c6-16.3,18.8-28.9,35.1-34.6 c0.7-0.2,1.5,0.1,1.7,0.8c0.2,0.7-0.1,1.5-0.8,1.7c-15.6,5.5-27.8,17.5-33.5,33C63.7,59.3,63.2,59.7,62.6,59.7z"/>
      <g>
        <path class="st1" d="M72.9,76.6l0.9-6.8l-27.3-9.4L43,66.3c-3.7,6.2-2.9,14.1,2.1,19.4c0.1,0.1,0.2,0.2,0.3,0.3 c1.9,1.9,3.3,4.4,3.8,7l0,0.2c0.2,1,1.4,1.4,2.2,0.8l0.1-0.1c2.1-1.8,4.6-2.9,7.3-3.2c0.2,0,0.3,0,0.5-0.1 C66.5,89.5,72,83.7,72.9,76.6z"/>
        <path class="st0" d="M73.2,60.8l-20.7-7.1c-3.4-1.2-7.1,0.6-8.2,4l0,0c-0.5,1.4,0.3,3,1.7,3.5l27.7,9.5c1.4,0.5,3-0.3,3.5-1.7 v0C78.4,65.6,76.6,61.9,73.2,60.8z"/>
        <g>
          <circle class="st2" cx="63" cy="74.6" r="4.3"/>
          <circle class="st3" cx="65" cy="75.7" r="2"/>
          <g>
            <circle class="st2" cx="52.2" cy="70.8" r="4.3"/>
            <circle class="st3" cx="54.2" cy="71.9" r="2"/>
          </g>
          <circle class="st3" cx="54.2" cy="82.5" r="3.2"/>
        </g>
      </g>
      <ellipse transform="matrix(0.9368 -0.3499 0.3499 0.9368 1.3274 42.2754)" class="st0" cx="117.7" cy="17.5" rx="25.1" ry="11.5"/>
      <g>
        <path class="st3" d="M62.4,135.5h-3.1v4h2.1v2.3h-2.1v6.6h-2.2v-15.1h5.3V135.5z"/>
        <path class="st3" d="M69.5,133.3h5.1v2.3h-2.9v4h2.1v2.4h-2.1v4.1h2.9v2.3h-5.1V133.3z"/>
        <path class="st3" d="M87.8,133.3v12c0,0.6-0.1,1.2-0.4,1.6c-0.2,0.4-0.5,0.8-0.9,1.1c-0.4,0.3-1,0.5-1.7,0.5s-1.3-0.2-1.7-0.5 c-0.4-0.3-0.7-0.7-0.9-1.1c-0.2-0.5-0.3-1-0.4-1.6v-12h2.2v12c0,0.4,0.1,0.7,0.3,0.9c0.1,0.1,0.2,0.2,0.4,0.2 c0.4,0,0.6-0.2,0.7-0.6c0.1-0.1,0.1-0.3,0.1-0.6v-12H87.8z"/>
        <path class="st3" d="M95.6,148.4v-15.1h1.7c2.1,0,3.2,0.4,3.8,1.6c0.6,1.2,0.7,3,0.7,6c0,3-0.1,4.8-0.7,6 c-0.6,1.2-1.7,1.6-3.8,1.6H95.6z M97.8,146.1c0.8,0,1.2-0.1,1.4-0.8c0.1-0.3,0.2-0.9,0.2-1.6s0-1.7,0-2.9s0-2.2,0-2.9 c0-0.7-0.1-1.2-0.2-1.6c-0.2-0.7-0.7-0.8-1.4-0.8V146.1z"/>
        <g>
          <path class="st4" d="M38.5,110h10.7v4h-1.7v-2.1h-5.3v5.4h5.6v1.9h-5.6v5.9h1.8v1.6h-5.5v-1.6h1.4v-13.2v-0.3h-1.4V110z"/>
          <path class="st4" d="M58.3,110l4.9,15h1.1v1.5h-4.7v-1.5h1.4l-1.2-3.5h-6.1l-1.1,3.5h1.4v1.5h-4.7v-1.5h1l4.9-15H58.3z M54.3,119.7h4.9l-2.5-7.5L54.3,119.7z"/>
          <path class="st4" d="M79.8,125.1h1.3v-11.7L76.7,125h-2.2l-4.1-11.4v11.5h1.3v1.5h-5v-1.5h1.4v-13.5h-1.4V110h4.7l4.2,12.1 l4.5-12.1h4.7v1.5h-1.4v13.5h1.4v1.5h-5V125.1z"/>
          <path class="st4" d="M88.7,110H94v1.5h-1.5v13.5H94v1.5h-5.3v-1.5h1.5v-13.5h-1.5V110z"/>
          <path class="st4" d="M98,110h5.5v1.5h-1.8v13.2h4.8v-2.2h1.7v4H98v-1.5h1.4v-13.5H98V110z"/>
          <path class="st4" d="M112,125.1h1.6v-4.2l-4.4-9.3h-1.1V110h4.6v1.5h-1.2l3.2,7l3.2-7h-1.2V110h4.6v1.5h-1.1l-4.4,9.3v4.2h1.6 v1.5H112V125.1z"/>
        </g>
      </g>
      <rect transform="matrix(-1 -1.224647e-16 1.224647e-16 -1 160 160)" width="160" height="160" fill="none"/>
    </g>
  </switch>
</svg>
