<svg id="Layer_1" xmlns="http://www.w3.org/2000/svg" viewBox="0 0 160 160">
  <style>
    .st0{fill:#004064}.st1{fill:#ff4671}.st2{fill:#fff}
  </style>
  <switch>
    <g>
      <path class="st0" d="M57.8,135.5h-3.1v4h2.1v2.3h-2.1v6.6h-2.2v-15.1h5.3V135.5z"/>
      <path class="st0" d="M64.8,133.3H67v15.1h-2.2V133.3z"/>
      <path class="st0" d="M78.4,138.7v-2.3c0-0.4-0.1-0.7-0.3-0.9c-0.1-0.1-0.3-0.2-0.5-0.2c-0.4,0-0.6,0.3-0.7,0.6 c-0.1,0.2-0.1,0.3-0.1,0.6v9.1c0,0.4,0.1,0.7,0.3,0.9c0.1,0.1,0.2,0.2,0.4,0.2c0.4,0,0.6-0.2,0.7-0.6c0.1-0.1,0.1-0.3,0.1-0.6 v-2.7h-0.9v-1.9h3.1v7.5h-1.3l-0.3-0.7c-0.4,0.5-1,0.9-1.7,0.9s-1.2-0.2-1.6-0.5c-0.4-0.3-0.6-0.7-0.8-1.1 c-0.2-0.5-0.3-1-0.2-1.6v-8.9c0-0.6,0.1-1.2,0.4-1.6c0.2-0.4,0.5-0.8,0.9-1.1c0.4-0.3,1-0.5,1.7-0.5s1.3,0.2,1.7,0.5 c0.4,0.3,0.7,0.7,0.9,1.1c0.2,0.5,0.3,1,0.4,1.6v2.3H78.4z"/>
      <path class="st0" d="M92.3,141.8h-1.7v6.6h-2.2v-15.1h2.2v6.2h1.7v-6.2h2.2v15.1h-2.2V141.8z"/>
      <path class="st0" d="M101.6,135.5v-2.3h6.4v2.3h-2.1v12.8h-2.2v-12.8H101.6z"/>
      <g>
        <path class="st1" d="M36.7,110h10.7v4h-1.7v-2.1h-5.3v5.4H46v1.9h-5.6v5.9h1.8v1.6h-5.5v-1.6H38v-13.2v-0.3h-1.4V110z"/>
        <path class="st1" d="M50.6,110h1.4h5.2c0.9,0,1.7,0.1,2.3,0.3c0.7,0.2,1.2,0.4,1.5,0.7c0.4,0.3,0.6,0.7,0.8,1.1 c0.2,0.5,0.3,0.9,0.4,1.3c0.1,0.4,0.1,0.9,0.1,1.5c0,0.6,0,1.1-0.1,1.5c-0.1,0.4-0.2,0.8-0.4,1.3c-0.2,0.4-0.5,0.8-0.8,1.1 c-0.4,0.3-0.9,0.5-1.4,0.7c0.3,0.3,0.7,0.8,0.9,1.4l1.8,4.1h1.4v1.5h-3.2l-2.3-5.4c-0.2-0.5-0.5-0.9-0.8-1s-0.8-0.3-1.4-0.3 h-1.7v5.2h1.3v1.5h-5v-1.5h1.4v-13.5h-1.4V110z M57.1,118c0.6,0,1.1-0.1,1.5-0.2s0.7-0.4,0.9-0.7c0.2-0.3,0.3-0.6,0.4-0.9 c0.1-0.3,0.1-0.7,0.1-1.2c0-1-0.2-1.8-0.5-2.3c-0.4-0.5-1.1-0.8-2.3-0.8h-2.8v6.2H57.1z"/>
        <path class="st1" d="M66.7,110h5.3v1.5h-1.5v13.5h1.5v1.5h-5.3v-1.5h1.5v-13.5h-1.5V110z"/>
        <path class="st1" d="M76,125.1h1.4v-13.5H76V110h11.2v4h-1.7v-2.1h-5.8v5.4h6v1.9h-6v5.7H86v-2.2h1.7v4H76V125.1z"/>
        <path class="st1" d="M101.4,110h5.1v1.5h-1.4v15h-2.5L95.1,114v11.1h1.4v1.5h-5.1v-1.5h1.4v-13.5h-1.4V110h3.9l7.6,12.7v-11.1 h-1.4V110z"/>
        <path class="st1" d="M116.8,110c0.8,0,1.6,0.1,2.2,0.2s1.2,0.3,1.7,0.5c0.5,0.2,0.8,0.5,1.2,0.9c0.3,0.4,0.6,0.8,0.8,1.2 s0.3,0.9,0.5,1.6s0.2,1.2,0.2,1.8c0,0.6,0.1,1.3,0.1,2.1c0,1.2,0,2.1-0.1,2.9c-0.1,0.8-0.2,1.5-0.5,2.3 c-0.3,0.7-0.6,1.3-1.1,1.7c-0.5,0.4-1.1,0.8-1.9,1c-0.8,0.3-1.8,0.4-3,0.4h-6.6v-1.5h1.4v-13.5h-1.4V110h3.7H116.8z M113.9,111.9v12.9h2.7c0.8,0,1.4-0.1,2-0.3c0.5-0.2,1-0.5,1.3-0.8s0.6-0.8,0.7-1.4c0.2-0.6,0.3-1.2,0.3-1.7 c0.1-0.6,0.1-1.3,0.1-2.2s0-1.6-0.1-2.2c-0.1-0.6-0.2-1.2-0.3-1.8c-0.2-0.6-0.4-1-0.7-1.4s-0.7-0.6-1.3-0.8s-1.2-0.3-2-0.3 H113.9z"/>
      </g>
      <g>
        <path class="st1" d="M50.9,83.5h17.7c7.1,0,12.8-5.7,12.8-12.8V53c0-7.1-5.7-12.8-12.8-12.8H50.9C43.8,40.1,38,45.9,38,53 v17.7C38,77.8,43.8,83.5,50.9,83.5z"/>
        <path class="st2" d="M48.9,66H62c2.9,0,5.2,2.4,5,5.2c-0.2,2.5-2.3,4.4-4.8,4.4H49c-2.9,0-5.2-2.4-5-5.2 C44.3,68,46.3,66,48.9,66z"/>
        <rect x="48.3" y="65.3" class="st1" width="1.5" height="11.1"/>
        <rect x="54.8" y="65.3" class="st1" width="1.5" height="11.1"/>
        <rect x="61.2" y="65.3" class="st1" width="1.5" height="11.1"/>
        <g>
          <circle class="st2" cx="47" cy="54.5" r="6.4"/>
          <circle class="st0" cx="50.3" cy="55.4" r="3"/>
          <g>
            <circle class="st2" cx="64.1" cy="54.5" r="6.4"/>
            <circle class="st0" cx="67.3" cy="55.6" r="3"/>
          </g>
          <path class="st1" d="M55.6,46.7h14.9c0,0,0,0,0,0v2.8c0,0,0,0,0,0l-14.9,7.5c0,0,0,0,0,0l-14.9-7.5c0,0,0,0,0,0v-2.8 c0,0,0,0,0,0H55.6z"/>
        </g>
        <g>
          <path d="M105.7,95.8l12.5-12.5c5-5,5-13.1,0-18.2l-12.5-12.5c-5-5-13.1-5-18.2,0L75,65.1c-5,5-5,13.1,0,18.2 l12.5,12.5C92.5,100.8,100.6,100.8,105.7,95.8z" fill="#00da8c"/>
          <path class="st1" d="M108.5,86.6H90.5c-1.8,0-3.2-1.4-3.2-3.2s1.4-3.2,3.2-3.2h18.1c1.8,0,3.2,1.4,3.2,3.2 S110.3,86.6,108.5,86.6z"/>
          <path class="st0" d="M108.5,84.3H90.5c-0.5,0-1-0.4-1-1s0.4-1,1-1h18.1c0.5,0,1,0.4,1,1S109.1,84.3,108.5,84.3z"/>
          <g>
            <circle class="st2" cx="92.2" cy="70.6" r="5.5"/>
            <circle class="st0" cx="89.7" cy="69.1" r="2.6"/>
            <g>
              <circle class="st2" cx="106.8" cy="70.6" r="5.5"/>
              <circle class="st0" cx="104.3" cy="69.1" r="2.6"/>
            </g>
          </g>
        </g>
      </g>
      <rect transform="matrix(-1 -1.224647e-16 1.224647e-16 -1 160 160)" width="160" height="160" fill="none"/>
    </g>
  </switch>
</svg>
