<svg id="Layer_1" xmlns="http://www.w3.org/2000/svg" viewBox="0 0 160 160">
  <style>
    .st0{fill:#004064}.st1{fill:#2cb1d8}.st2{fill:#f1b24c}.st3{fill:#fff}.st4{fill:#ff4671}
  </style>
  <switch>
    <g>
      <path class="st0" d="M46.9,148.4l-1.2-6.4h-0.6v6.4H43v-15.1h2.2c2.6,0,3.8,1.5,3.8,4.4c0,1.5-0.4,2.9-1.2,3.4l1.4,7.3H46.9z M45.2,139.9c0.3,0,0.7,0,1-0.3c0.3-0.3,0.6-0.8,0.6-1.9c0-1.1-0.3-1.6-0.6-1.9c-0.3-0.3-0.7-0.3-1-0.3V139.9z"/>
      <path class="st0" d="M62.4,133.3v12c0,0.6-0.1,1.2-0.4,1.6c-0.2,0.4-0.5,0.8-0.9,1.1c-0.4,0.3-1,0.5-1.7,0.5 c-0.7,0-1.3-0.2-1.7-0.5c-0.4-0.3-0.7-0.7-0.9-1.1c-0.2-0.5-0.3-1-0.4-1.6v-12h2.2v12c0,0.4,0.1,0.7,0.3,0.9 c0.1,0.1,0.2,0.2,0.4,0.2c0.4,0,0.6-0.2,0.7-0.6c0.1-0.1,0.1-0.3,0.1-0.6v-12H62.4z"/>
      <path class="st0" d="M73.9,148.4l-1.4-9.5l-0.1-0.6h-0.1v10.1h-2.1v-15.1h2.7l1.3,6.9l0.1,0.8h0l0.1-0.8l1.3-6.9h2.7v15.1h-2.1 v-10.1h-0.1l-0.1,0.6l-1.4,9.5H73.9z"/>
      <path class="st0" d="M86.3,148.4v-15.1h2c1.3,0,2.3,0.2,3,0.9s1,1.6,1,3.1c0,0.7-0.1,1.3-0.3,1.7c-0.2,0.5-0.6,0.9-1.1,1.4 c0.6,0.3,1,0.9,1.3,1.8c0.2,0.5,0.2,1.1,0.2,1.8c0,1.1-0.2,2.1-0.7,2.9c-0.5,0.8-1.4,1.3-2.7,1.4H86.3z M88.5,139.5 c0.2,0,0.6,0,1-0.2c0.4-0.2,0.7-0.7,0.7-1.8c0-1-0.3-1.5-0.7-1.8c-0.4-0.2-0.8-0.2-1-0.2V139.5z M88.5,146.2c0.2,0,0.6,0,1-0.2 c0.4-0.3,0.7-0.9,0.7-2.1s-0.3-1.8-0.7-2.1c-0.4-0.3-0.8-0.2-1-0.2V146.2z"/>
      <path class="st0" d="M99.9,133.3h2.2v13h2.9v2.1h-5.2V133.3z"/>
      <path class="st0" d="M112.2,133.3h5.1v2.3h-2.9v4h2.1v2.4h-2.1v4.1h2.9v2.3h-5.1V133.3z"/>
      <g>
        <path class="st1" d="M13.2,110h1.4h5.2c0.9,0,1.7,0.1,2.3,0.3c0.7,0.2,1.2,0.4,1.5,0.7c0.4,0.3,0.6,0.7,0.8,1.1 c0.2,0.5,0.3,0.9,0.4,1.3c0.1,0.4,0.1,0.9,0.1,1.5c0,0.6,0,1.1-0.1,1.5c-0.1,0.4-0.2,0.8-0.4,1.3c-0.2,0.4-0.5,0.8-0.8,1.1 c-0.4,0.3-0.9,0.5-1.4,0.7c0.3,0.3,0.7,0.8,0.9,1.4l1.8,4.1h1.4v1.5h-3.2l-2.3-5.4c-0.2-0.5-0.5-0.9-0.8-1s-0.8-0.3-1.4-0.3 h-1.7v5.2h1.3v1.5h-5v-1.5h1.4v-13.5h-1.4V110z M19.8,118c0.6,0,1.1-0.1,1.5-0.2s0.7-0.4,0.9-0.7c0.2-0.3,0.3-0.6,0.4-0.9 c0.1-0.3,0.1-0.7,0.1-1.2c0-1-0.2-1.8-0.5-2.3c-0.4-0.5-1.1-0.8-2.3-0.8h-2.8v6.2H19.8z"/>
        <path class="st1" d="M32.7,126.6c-0.8-0.3-1.5-0.6-1.9-1.1c-0.5-0.4-0.8-1-1.1-1.8c-0.3-0.8-0.4-1.6-0.5-2.3 c-0.1-0.8-0.1-1.8-0.1-3c0-0.8,0-1.6,0.1-2.2c0-0.6,0.1-1.2,0.2-1.9c0.1-0.6,0.3-1.2,0.4-1.6c0.2-0.4,0.4-0.8,0.8-1.2 c0.3-0.4,0.7-0.7,1.2-1c0.5-0.2,1-0.4,1.7-0.6c0.7-0.1,1.4-0.2,2.2-0.2c1.2,0,2.2,0.1,3,0.4c0.8,0.3,1.5,0.6,1.9,1.1 s0.8,1,1.1,1.8c0.3,0.8,0.4,1.6,0.5,2.3c0.1,0.8,0.1,1.8,0.1,3c0,1,0,1.8-0.1,2.5s-0.2,1.4-0.3,2.1c-0.2,0.7-0.4,1.3-0.7,1.7 c-0.3,0.5-0.7,0.9-1.2,1.2c-0.5,0.4-1.1,0.6-1.8,0.8c-0.7,0.2-1.6,0.2-2.5,0.2C34.5,127,33.5,126.8,32.7,126.6z M37.6,124.7 c0.5-0.2,0.9-0.5,1.2-0.8c0.3-0.3,0.5-0.8,0.7-1.4c0.2-0.6,0.3-1.2,0.3-1.8c0.1-0.6,0.1-1.4,0.1-2.3s0-1.7-0.1-2.3 c-0.1-0.6-0.2-1.2-0.3-1.8s-0.4-1.1-0.7-1.4c-0.3-0.3-0.7-0.6-1.2-0.8s-1.2-0.3-1.9-0.3c-0.8,0-1.4,0.1-1.9,0.3 c-0.5,0.2-0.9,0.5-1.2,0.8c-0.3,0.3-0.5,0.8-0.7,1.4c-0.2,0.6-0.3,1.2-0.3,1.8s-0.1,1.4-0.1,2.3c0,0.9,0,1.7,0.1,2.3 c0,0.6,0.2,1.2,0.3,1.8c0.2,0.6,0.4,1.1,0.7,1.4c0.3,0.3,0.7,0.6,1.2,0.8c0.5,0.2,1.2,0.3,1.9,0.3 C36.4,125,37,124.9,37.6,124.7z"/>
        <path class="st1" d="M49.1,126.6c-0.8-0.3-1.5-0.6-1.9-1.1c-0.5-0.4-0.8-1-1.1-1.8c-0.3-0.8-0.4-1.6-0.5-2.3 c-0.1-0.8-0.1-1.8-0.1-3c0-0.8,0-1.6,0.1-2.2c0-0.6,0.1-1.2,0.2-1.9c0.1-0.6,0.3-1.2,0.4-1.6c0.2-0.4,0.4-0.8,0.8-1.2 c0.3-0.4,0.7-0.7,1.2-1c0.5-0.2,1-0.4,1.7-0.6c0.7-0.1,1.4-0.2,2.2-0.2c1.2,0,2.2,0.1,3,0.4c0.8,0.3,1.5,0.6,1.9,1.1 s0.8,1,1.1,1.8c0.3,0.8,0.4,1.6,0.5,2.3c0.1,0.8,0.1,1.8,0.1,3c0,1,0,1.8-0.1,2.5s-0.2,1.4-0.3,2.1c-0.2,0.7-0.4,1.3-0.7,1.7 c-0.3,0.5-0.7,0.9-1.2,1.2c-0.5,0.4-1.1,0.6-1.8,0.8c-0.7,0.2-1.6,0.2-2.5,0.2C50.9,127,50,126.8,49.1,126.6z M54,124.7 c0.5-0.2,0.9-0.5,1.2-0.8c0.3-0.3,0.5-0.8,0.7-1.4c0.2-0.6,0.3-1.2,0.3-1.8c0.1-0.6,0.1-1.4,0.1-2.3s0-1.7-0.1-2.3 c-0.1-0.6-0.2-1.2-0.3-1.8s-0.4-1.1-0.7-1.4c-0.3-0.3-0.7-0.6-1.2-0.8s-1.2-0.3-1.9-0.3c-0.8,0-1.4,0.1-1.9,0.3 c-0.5,0.2-0.9,0.5-1.2,0.8c-0.3,0.3-0.5,0.8-0.7,1.4c-0.2,0.6-0.3,1.2-0.3,1.8s-0.1,1.4-0.1,2.3c0,0.9,0,1.7,0.1,2.3 c0,0.6,0.2,1.2,0.3,1.8c0.2,0.6,0.4,1.1,0.7,1.4c0.3,0.3,0.7,0.6,1.2,0.8c0.5,0.2,1.2,0.3,1.9,0.3 C52.9,125,53.5,124.9,54,124.7z"/>
        <path class="st1" d="M75.4,125.1h1.3v-11.7L72.3,125h-2.2L66,113.6v11.5h1.3v1.5h-5v-1.5h1.4v-13.5h-1.4V110H67l4.2,12.1 l4.5-12.1h4.7v1.5H79v13.5h1.4v1.5h-5V125.1z"/>
        <path class="st1" d="M97.4,125.1h1.3v-11.7L94.2,125h-2.2L88,113.6v11.5h1.3v1.5h-5v-1.5h1.4v-13.5h-1.4V110H89l4.2,12.1 l4.5-12.1h4.7v1.5H101v13.5h1.4v1.5h-5V125.1z"/>
        <path class="st1" d="M113.9,110l4.9,15h1.1v1.5h-4.7v-1.5h1.4l-1.2-3.5h-6.1l-1.1,3.5h1.4v1.5h-4.7v-1.5h1l4.9-15H113.9z M109.9,119.7h4.9l-2.5-7.5L109.9,119.7z"/>
        <path class="st1" d="M130.8,114.1v-2.2h-3.3v13.2h1.9v1.5h-6.1v-1.5h1.9v-13.2H122v2.2h-1.7v-4h12.3v4H130.8z"/>
        <path class="st1" d="M135.1,125.1h1.4v-13.5h-1.4V110h11.2v4h-1.7v-2.1h-5.8v5.4h6v1.9h-6v5.7h6.2v-2.2h1.7v4h-11.7V125.1z"/>
      </g>
      <g>
        <path class="st1" d="M83.7,52c-2.1,0-4.3-0.3-6.4-0.9c-6.4-1.7-11.7-5.8-15-11.5c-3.3-5.7-4.2-12.4-2.5-18.7 c1.7-6.4,5.8-11.7,11.5-15c11.8-6.8,26.9-2.8,33.8,9c6.8,11.8,2.8,26.9-9,33.8C92.2,50.9,87.9,52,83.7,52z M83.6,6.6 c-3.5,0-7.1,0.9-10.3,2.8c-4.8,2.8-8.2,7.2-9.6,12.6c-1.4,5.3-0.7,10.9,2.1,15.7v0c2.8,4.8,7.2,8.2,12.6,9.6 c5.3,1.4,10.9,0.7,15.7-2.1c9.9-5.7,13.3-18.4,7.6-28.3C97.7,10.3,90.7,6.6,83.6,6.6z"/>
        <path class="st2" d="M106,87.6l-2.6-4.5c-0.4-0.6-0.1-1.4,0.5-1.7l4.5-2.6c0.6-0.4,0.8-1.1,0.5-1.7L94.3,52l5.4-3l24,41.6 c0.4,0.6,0.1,1.4-0.5,1.7L111,99.4c-0.6,0.4-1.4,0.1-1.7-0.5l-2.6-4.5c-0.4-0.6-0.1-1.4,0.5-1.7l6.9-4c0.6-0.4,0.8-1.1,0.5-1.7 l-0.6-1c-0.4-0.6-1.1-0.8-1.7-0.5l-4.5,2.6C107.1,88.4,106.3,88.2,106,87.6z"/>
        <path class="st2" d="M101.8,42.8c-2.3-3.7-7.1-4.9-10.8-2.8c-3.8,2.2-5.1,7-3,10.8c-2.9,4.1-2.8,8.8-0.5,12.9 c3.5,6,10.6,8.4,19.1,3.4c8.5-4.9,10-12.3,6.6-18.3C110.8,44.8,106.8,42.4,101.8,42.8z M96.8,50.2c-1.8,1-4,0.4-5-1.4 c-1-1.8-0.4-4,1.4-5c1.8-1,4-0.4,5,1.4C99.2,46.9,98.6,49.1,96.8,50.2z"/>
        <path class="st3" d="M97.7,61.1c-1.3,0.9-1.7,2.7-0.9,4.1s2.5,1.9,4,1.3L97.7,61.1z"/>
        <rect x="99.9" y="59.4" transform="matrix(0.866 -0.5 0.5 0.866 -17.6401 59.1284)" class="st3" width="3.2" height="6.3"/>
        <path class="st3" d="M108.9,61.8c1.3-0.9,1.7-2.7,0.9-4.1c-0.8-1.4-2.5-1.9-4-1.3L108.9,61.8z"/>
        <rect x="103.5" y="57.3" transform="matrix(0.866 -0.5 0.5 0.866 -16.1113 60.6577)" class="st3" width="3.2" height="6.3"/>
        <g>
          <circle class="st3" cx="104" cy="50.4" r="3.8"/>
          <circle class="st0" cx="103" cy="52.1" r="1.8"/>
          <g>
            <circle class="st3" cx="93.4" cy="56.5" r="3.8"/>
            <circle class="st0" cx="91.4" cy="56.5" r="1.8"/>
          </g>
        </g>
        <g>
          <path class="st2" d="M88,56.4c0,0,10.3,0,10.5-0.1l-4.9-5.8l-2.8,1.6L88,56.4z"/>
          <path class="st2" d="M106.6,45.6l-5.1,0.3l-2.8,1.6l2.6,7.2C101.5,54.5,106.6,45.6,106.6,45.6z"/>
        </g>
        <g>
          <path class="st4" d="M41.2,79.4l2.6-4.5c0.4-0.6,1.1-0.8,1.7-0.5L50,77c0.6,0.4,1.4,0.1,1.7-0.5l14.7-25.4l5.4,3.1L47.5,96.3 c-0.4,0.6-1.1,0.8-1.7,0.5l-12.3-7.1c-0.6-0.4-0.8-1.1-0.5-1.7l2.6-4.5c0.4-0.6,1.1-0.8,1.7-0.5l6.9,4c0.6,0.4,1.4,0.1,1.7-0.5 l0.6-1c0.4-0.6,0.1-1.4-0.5-1.7l-4.5-2.6C41,80.8,40.8,80,41.2,79.4z"/>
          <path class="st4" d="M79.3,50.8c2.1-3.8,0.8-8.6-3-10.8c-3.8-2.2-8.6-0.9-10.8,2.8c-5-0.4-9,2-11.4,6c-3.5,6-2,13.3,6.6,18.3 c8.5,4.9,15.6,2.6,19.1-3.4C82.1,59.6,82.1,54.9,79.3,50.8z M70.4,50.2c-1.8-1-2.4-3.3-1.4-5c1-1.8,3.3-2.4,5-1.4 c1.8,1,2.4,3.3,1.4,5C74.4,50.6,72.2,51.2,70.4,50.2z"/>
          <rect x="59" y="58.8" transform="matrix(0.5001 -0.866 0.866 0.5001 -21.2575 83.9632)" class="st3" width="6.3" height="3.2"/>
          <rect x="62.6" y="60.9" transform="matrix(0.5001 -0.866 0.866 0.5001 -21.2574 88.1401)" class="st3" width="6.3" height="3.2"/>
          <path class="st3" d="M69.5,61.1l-3.1,5.4c1.4,0.6,3.2,0.1,4-1.3C71.2,63.8,70.8,62,69.5,61.1z"/>
          <path class="st3" d="M58.3,61.8l3.1-5.4c-1.4-0.6-3.2-0.1-4,1.3C56.6,59.1,57,60.8,58.3,61.8z"/>
          <g>
            <circle class="st3" cx="63.2" cy="50.4" r="3.8"/>
            <circle class="st0" cx="64.3" cy="52.1" r="1.8"/>
            <g>
              <circle class="st3" cx="73.8" cy="56.5" r="3.8"/>
              <circle class="st0" cx="75.9" cy="56.5" r="1.8"/>
            </g>
          </g>
          <g>
            <path class="st4" d="M79.2,56.4c0,0-10.3,0-10.5-0.1l4.9-5.8l2.8,1.6L79.2,56.4z"/>
            <path class="st4" d="M60.6,45.6l5.1,0.3l2.8,1.6l-2.6,7.2C65.8,54.5,60.6,45.6,60.6,45.6z"/>
          </g>
        </g>
        <path class="st1" d="M84.3,52l-0.1-4c3.4-0.1,6.8-1,9.8-2.8l2,3.5C92.4,50.8,88.4,51.9,84.3,52z"/>
        <path class="st1" d="M71.1,48.6c-3.7-2.2-6.7-5.2-8.9-9l3.5-2c1.8,3.1,4.4,5.7,7.4,7.5L71.1,48.6z"/>
      </g>
      <rect width="160" height="160" fill="none"/>
    </g>
  </switch>
</svg>
