<svg id="Layer_1" xmlns="http://www.w3.org/2000/svg" xmlns:xlink="http://www.w3.org/1999/xlink" viewBox="0 0 160 160">
  <style>
    .st1{fill:#2cb1d8}.st3{fill:#3b65ff}.st4{fill:#004064}.st6{fill:#fff}.st8{fill:#ff4671}.st9{fill:#e90064}
  </style>
  <switch>
    <g>
      <path d="M94.8,99.5c0.2,0,0.4,0,0.5-0.1c18.6-8.6,28.8-17.6,31.4-27.5c0,0,0,0,0-0.1l0.5-2.9c0,0,0,0,0-0.1 c0.9-9.4-4.3-15.2-9.6-16.7c-0.8-0.2-1.6-0.4-2.4-0.5c-5.8-1-9.3,1-12.7,3.7c-2.2-3.7-4.8-6.8-10.6-7.8 c-0.7-0.1-1.6-0.2-2.4-0.3c-5.4-0.4-12.4,3.2-14.8,12.3c0,0,0,0,0,0.1l-0.5,2.9c0,0,0,0,0,0.1c-1,10.2,5.5,22.2,19.9,36.7 C94.5,99.4,94.7,99.5,94.8,99.5z" fill="#00a2d0"/>
      <path class="st1" d="M77.7,63c-0.4,4.4,0.9,9.4,3.8,14.8c2.9,5.4,7.7,11.5,14,18.1c8.2-3.9,14.8-8,19.4-12.1 c4.6-4.1,7.6-8.3,8.7-12.5l0.5-2.7c0.5-5.2-1.6-11.6-7.2-13.2c-0.7-0.2-1.4-0.4-2-0.5c-4.3-0.8-6.9,0.5-10,3l-2.9,2.3L100,57 c-2.1-3.5-4-5.5-8.4-6.3c-0.6-0.1-1.3-0.2-2.1-0.3c-4.1-0.3-9.4,2.6-11.3,9.8L77.7,63z"/>
      <defs>
        <path id="SVGID_1_" d="M94.8,99.5c0.2,0,0.4,0,0.5-0.1c18.6-8.6,28.8-17.6,31.4-27.5c0,0,0,0,0-0.1l0.5-2.9c0,0,0,0,0-0.1 c0.9-9.4-4.3-15.2-9.6-16.7c-0.8-0.2-1.6-0.4-2.4-0.5c-5.8-1-9.3,1-12.7,3.7c-2.2-3.7-4.8-6.8-10.6-7.8 c-0.7-0.1-1.6-0.2-2.4-0.3c-5.4-0.4-12.4,3.2-14.8,12.3c0,0,0,0,0,0.1l-0.5,2.9c0,0,0,0,0,0.1c-1,10.2,5.5,22.2,19.9,36.7 C94.5,99.4,94.7,99.5,94.8,99.5z"/>
      </defs>
      <use xlink:href="#SVGID_1_" overflow="visible" fill="#00a2d0"/>
      <clipPath id="SVGID_2_">
        <use xlink:href="#SVGID_1_" overflow="visible"/>
      </clipPath>
      <g clip-path="url(#SVGID_2_)">
        <circle class="st3" cx="118.6" cy="82.6" r="6.4"/>
        <circle class="st3" cx="78.4" cy="75.4" r="6.4"/>
      </g>
      <g>
        <path class="st4" d="M106.4,82.2c-1.8-2.6-4.5-4.3-7.6-4.9c-3.1-0.6-6.3,0.1-8.8,1.9l-0.5-0.8c2.8-1.9,6.2-2.7,9.5-2.1 c3.4,0.6,6.3,2.5,8.2,5.3L106.4,82.2z"/>
        <rect x="105.4" y="81.5" transform="matrix(0.8206 -0.5715 0.5715 0.8206 -27.7008 75.7106)" class="st4" width="2.7" height=".9"/>
        <rect x="89.2" y="77.6" transform="matrix(0.8211 -0.5708 0.5708 0.8211 -29.0033 65.272)" class="st4" width=".9" height="2.7"/>
      </g>
      <g>
        <defs>
          <polygon id="SVGID_3_" points="82.6 72.6 84.9 59.8 98.2 67.6 99.3 67.8 98.6 71.5"/>
        </defs>
        <clipPath id="SVGID_4_">
          <use xlink:href="#SVGID_3_" overflow="visible"/>
        </clipPath>
        <g clip-path="url(#SVGID_4_)">
          <circle class="st6" cx="92.9" cy="64.4" r="5.9"/>
          <circle class="st4" cx="90.1" cy="63" r="2.7"/>
        </g>
      </g>
      <g>
        <defs>
          <polygon id="SVGID_5_" points="115.7 78.6 118 65.7 102.8 68.5 101.8 68.3 101.1 72"/>
        </defs>
        <clipPath id="SVGID_6_">
          <use xlink:href="#SVGID_5_" overflow="visible"/>
        </clipPath>
        <g clip-path="url(#SVGID_6_)">
          <circle class="st6" cx="108.9" cy="67.3" r="5.9"/>
          <circle class="st4" cx="105.8" cy="67.9" r="2.7"/>
        </g>
      </g>
      <g>
        <path class="st8" d="M70.6,87.6c-0.2,0.1-0.3,0.1-0.5,0c-19.8-5.3-31.5-12.3-35.7-21.6c0,0,0,0,0-0.1l-1-2.8c0,0,0,0,0-0.1 C30.8,54,34.9,47.3,39.9,45c0.8-0.4,1.5-0.7,2.2-0.9c5.6-2,9.3-0.7,13.1,1.4c1.5-4,3.5-7.5,9.1-9.6c0.7-0.3,1.5-0.5,2.3-0.7 c5.3-1.4,12.7,1,16.7,9.6c0,0,0,0,0,0.1l1,2.8c0,0,0,0,0,0.1c2.8,9.9-1.6,22.8-13.2,39.6C71,87.4,70.8,87.5,70.6,87.6z"/>
        <path class="st8" d="M37.4,64.7c1.9,4,5.5,7.6,10.7,10.8c5.3,3.2,12.4,6.1,21.2,8.5c5.1-7.6,8.7-14.3,10.7-20.2 c2-5.8,2.3-11,1.2-15.2L80.2,46c-2.2-4.8-7.2-9.2-12.9-7.7c-0.7,0.2-1.4,0.4-2,0.6c-4.1,1.5-5.7,3.9-7.2,7.7l-1.3,3.5 l-3.3-1.8c-3.6-2-6.3-2.7-10.4-1.2c-0.6,0.2-1.3,0.5-1.9,0.8c-3.7,1.8-6.8,7-4.8,14.2L37.4,64.7z"/>
        <g>
          <path class="st4" d="M67.2,57.5c-1,0-2-0.2-2.9-0.6l0.4-0.8c1.4,0.7,3.1,0.7,4.5,0.2c1.5-0.5,2.7-1.6,3.3-3.1l0.8,0.4 c-0.8,1.7-2.1,2.9-3.9,3.6C68.8,57.4,68,57.5,67.2,57.5z"/>
          <path class="st4" d="M49.3,64c-1,0-1.9-0.2-2.9-0.6l0.4-0.8c3,1.4,6.5,0.1,7.9-2.9l0.8,0.4C54.4,62.6,51.9,64,49.3,64z"/>
          <circle class="st9" cx="64.7" cy="71.3" r="2.7"/>
          <path class="st4" d="M60.4,72.6c-1.8,0-3.6-0.4-5.3-1.2l0.4-0.8c5.9,2.7,13,0.2,15.7-5.8l0.8,0.4 C69.9,69.8,65.3,72.6,60.4,72.6z"/>
          <rect x="54" y="70.5" transform="matrix(0.4198 -0.9076 0.9076 0.4198 -32.331 91.3516)" class="st4" width="2.7" height=".9"/>
          <rect x="71.1" y="63.6" transform="matrix(0.42 -0.9075 0.9075 0.42 -17.4255 102.6704)" class="st4" width=".9" height="2.7"/>
          <rect x="69.3" y="56.6" transform="matrix(0.9386 -0.3449 0.3449 0.9386 -15.5661 27.5872)" class="st4" width=".9" height="1.9"/>
          <rect x="67.4" y="57" transform="matrix(0.9959 -9.005541e-02 9.005541e-02 0.9959 -4.9439 6.3473)" class="st4" width=".9" height="1.9"/>
          <rect x="65" y="57.4" transform="matrix(0.1707 -0.9853 0.9853 0.1707 -2.3454 112.9785)" class="st4" width="1.9" height=".9"/>
          <rect x="71" y="55.7" transform="matrix(0.8175 -0.576 0.576 0.8175 -19.5845 51.495)" class="st4" width=".9" height="1.9"/>
          <rect x="72.4" y="54.4" transform="matrix(0.6404 -0.768 0.768 0.6404 -16.3024 75.8601)" class="st4" width=".9" height="1.9"/>
          <g>
            <rect x="51.4" y="63.1" transform="matrix(0.9387 -0.3447 0.3447 0.9387 -18.9113 21.8175)" class="st4" width=".9" height="1.9"/>
            <rect x="53.1" y="62.2" transform="matrix(0.8175 -0.576 0.576 0.8175 -26.6163 42.413)" class="st4" width=".9" height="1.9"/>
            <rect x="54.6" y="60.9" transform="matrix(0.6406 -0.7679 0.7679 0.6406 -27.7517 64.498)" class="st4" width=".9" height="1.9"/>
            <rect x="49.6" y="63.6" transform="matrix(0.996 -8.980379e-02 8.980379e-02 0.996 -5.5915 4.7528)" class="st4" width=".9" height="1.9"/>
            <rect x="47.1" y="64" transform="matrix(0.1707 -0.9853 0.9853 0.1707 -23.6006 100.8305)" class="st4" width="1.9" height=".9"/>
          </g>
          <g>
            <circle class="st9" cx="75.1" cy="59" r=".8"/>
            <circle class="st9" cx="77.5" cy="61" r=".8"/>
            <circle class="st9" cx="74.6" cy="62" r=".8"/>
          </g>
          <g>
            <circle class="st9" cx="48.7" cy="68.7" r=".8"/>
            <circle class="st9" cx="48.2" cy="71.7" r=".8"/>
            <circle class="st9" cx="51.1" cy="70.6" r=".8"/>
          </g>
        </g>
      </g>
      <rect transform="matrix(-1 -1.224647e-16 1.224647e-16 -1 160 160)" width="160" height="160" fill="none"/>
      <g>
        <path class="st4" d="M43,145.3c0,0.3-0.1,0.7-0.2,1.2c-0.1,0.2-0.2,0.4-0.3,0.7c0.2,0.2,0.5,0.5,0.9,0.5v1.9 c-1.3,0-1.9-0.5-2.3-1.2c-0.3,0.1-0.7,0.2-1.1,0.2c-0.7,0-1.3-0.2-1.7-0.5c-0.4-0.3-0.7-0.7-0.9-1.1c-0.2-0.5-0.3-1-0.4-1.6 v-8.9c0-0.6,0.1-1.2,0.4-1.6c0.2-0.4,0.5-0.8,0.9-1.1c0.4-0.3,1-0.5,1.7-0.5c0.7,0,1.3,0.2,1.7,0.5c0.4,0.3,0.7,0.7,0.9,1.1 c0.2,0.5,0.3,1,0.4,1.6V145.3z M40.8,136.4c0-0.4-0.1-0.7-0.3-0.9c-0.1-0.1-0.3-0.2-0.5-0.2c-0.4,0-0.6,0.3-0.7,0.6 c-0.1,0.2-0.1,0.3-0.1,0.6v8.9c0,0.4,0.1,0.7,0.3,0.9c0.1,0.1,0.2,0.2,0.4,0.2c0.4,0,0.6-0.2,0.7-0.6c0.1-0.1,0.1-0.3,0.1-0.6 V136.4z"/>
        <path class="st4" d="M56.6,133.3v12c0,0.6-0.1,1.2-0.4,1.6c-0.2,0.4-0.5,0.8-0.9,1.1c-0.4,0.3-1,0.5-1.7,0.5s-1.3-0.2-1.7-0.5 c-0.4-0.3-0.7-0.7-0.9-1.1c-0.2-0.5-0.3-1-0.4-1.6v-12h2.2v12c0,0.4,0.1,0.7,0.3,0.9c0.1,0.1,0.2,0.2,0.4,0.2 c0.4,0,0.6-0.2,0.7-0.6c0.1-0.1,0.1-0.3,0.1-0.6v-12H56.6z"/>
        <path class="st4" d="M63.8,148.4l2.3-15.1h2.7l2.3,15.1h-2.2l-0.4-3.1h-2.1l-0.4,3.1H63.8z M67.6,138.2l-0.1-0.4h-0.1l-0.1,0.4 l-0.6,4.8h1.5L67.6,138.2z"/>
        <path class="st4" d="M82.2,148.4l-1.1-6.4h-0.6v6.4h-2.2v-15.1h2.2c2.6,0,3.8,1.5,3.8,4.4c0,1.5-0.4,2.9-1.2,3.4l1.4,7.3H82.2z M80.5,139.9c0.3,0,0.7,0,1-0.3c0.3-0.3,0.6-0.8,0.6-1.9c0-1.1-0.3-1.6-0.6-1.9c-0.3-0.3-0.7-0.3-1-0.3V139.9z"/>
        <path class="st4" d="M95.8,148.4l-1.1-6.4h-0.6v6.4h-2.2v-15.1h2.2c2.6,0,3.8,1.5,3.8,4.4c0,1.5-0.4,2.9-1.2,3.4l1.4,7.3H95.8z M94.1,139.9c0.3,0,0.7,0,1-0.3c0.3-0.3,0.6-0.8,0.6-1.9c0-1.1-0.3-1.6-0.6-1.9c-0.3-0.3-0.7-0.3-1-0.3V139.9z"/>
        <path class="st4" d="M105.4,133.3h5.1v2.3h-2.9v4h2.1v2.4h-2.1v4.1h2.9v2.3h-5.1V133.3z"/>
        <path class="st4" d="M117.9,133.3h2.2v13h2.9v2.1h-5.2V133.3z"/>
        <g>
          <path class="st1" d="M32.5,110H38v1.5h-1.8v13.2H41v-2.2h1.7v4H32.5v-1.5h1.4v-13.5h-1.4V110z"/>
          <path class="st1" d="M48.6,126.6c-0.8-0.3-1.5-0.6-1.9-1.1c-0.5-0.4-0.8-1-1.1-1.8c-0.3-0.8-0.4-1.6-0.5-2.3 c-0.1-0.8-0.1-1.8-0.1-3c0-0.8,0-1.6,0.1-2.2c0-0.6,0.1-1.2,0.2-1.9c0.1-0.6,0.3-1.2,0.4-1.6s0.4-0.8,0.8-1.2 c0.3-0.4,0.7-0.7,1.2-1c0.5-0.2,1-0.4,1.7-0.6c0.7-0.1,1.4-0.2,2.2-0.2c1.2,0,2.2,0.1,3,0.4c0.8,0.3,1.5,0.6,1.9,1.1 c0.5,0.4,0.8,1,1.1,1.8c0.3,0.8,0.4,1.6,0.5,2.3c0.1,0.8,0.1,1.8,0.1,3c0,1,0,1.8-0.1,2.5s-0.2,1.4-0.3,2.1 c-0.2,0.7-0.4,1.3-0.7,1.7s-0.7,0.9-1.2,1.2c-0.5,0.4-1.1,0.6-1.8,0.8c-0.7,0.2-1.6,0.2-2.5,0.2 C50.4,127,49.4,126.8,48.6,126.6z M53.5,124.7c0.5-0.2,0.9-0.5,1.2-0.8c0.3-0.3,0.5-0.8,0.7-1.4c0.2-0.6,0.3-1.2,0.3-1.8 s0.1-1.4,0.1-2.3s0-1.7-0.1-2.3c-0.1-0.6-0.2-1.2-0.3-1.8c-0.2-0.6-0.4-1.1-0.7-1.4c-0.3-0.3-0.7-0.6-1.2-0.8s-1.2-0.3-1.9-0.3 c-0.8,0-1.4,0.1-1.9,0.3s-0.9,0.5-1.2,0.8s-0.5,0.8-0.7,1.4s-0.3,1.2-0.3,1.8c0,0.6-0.1,1.4-0.1,2.3c0,0.9,0,1.7,0.1,2.3 c0,0.6,0.2,1.2,0.3,1.8c0.2,0.6,0.4,1.1,0.7,1.4c0.3,0.3,0.7,0.6,1.2,0.8s1.2,0.3,1.9,0.3C52.3,125,53,124.9,53.5,124.7z"/>
          <path class="st1" d="M66.3,126.6l-4.6-15h-1V110h4.7v1.5H64l3.8,12.9l3.8-12.9h-1.3V110H75v1.5h-1l-4.6,15H66.3z"/>
          <path class="st1" d="M77.8,125.1h1.4v-13.5h-1.4V110H89v4h-1.7v-2.1h-5.8v5.4h6v1.9h-6v5.7h6.2v-2.2h1.7v4H77.8V125.1z"/>
          <path class="st1" d="M93.2,110h1.4h5.2c0.9,0,1.7,0.1,2.3,0.3c0.7,0.2,1.2,0.4,1.5,0.7c0.4,0.3,0.6,0.7,0.8,1.1 c0.2,0.5,0.3,0.9,0.4,1.3c0.1,0.4,0.1,0.9,0.1,1.5c0,0.6,0,1.1-0.1,1.5c-0.1,0.4-0.2,0.8-0.4,1.3c-0.2,0.4-0.5,0.8-0.8,1.1 c-0.4,0.3-0.9,0.5-1.4,0.7c0.3,0.3,0.7,0.8,0.9,1.4l1.8,4.1h1.4v1.5h-3.2l-2.3-5.4c-0.2-0.5-0.5-0.9-0.8-1s-0.8-0.3-1.4-0.3 h-1.7v5.2h1.3v1.5h-5v-1.5h1.4v-13.5h-1.4V110z M99.7,118c0.6,0,1.1-0.1,1.5-0.2s0.7-0.4,0.9-0.7s0.3-0.6,0.4-0.9 c0.1-0.3,0.1-0.7,0.1-1.2c0-1-0.2-1.8-0.5-2.3c-0.4-0.5-1.1-0.8-2.3-0.8h-2.8v6.2H99.7z"/>
          <path class="st1" d="M110.1,110.4c0-0.3,0-0.6,0.1-0.8c0-0.2,0.2-0.4,0.4-0.5c0.2-0.2,0.5-0.2,0.8-0.2c0.5,0,0.9,0.1,1.1,0.4 s0.3,0.7,0.3,1.1c0,0.7-0.2,1.4-0.5,2.1s-0.7,1.2-1,1.5c-0.3,0.3-0.7,0.6-1,0.8l-0.7-0.8c0.6-0.5,1-1.1,1-1.8 c0-0.2-0.1-0.4-0.2-0.8C110.1,111,110.1,110.7,110.1,110.4z"/>
          <path class="st1" d="M116.1,126.6v-5.2h1.7c0,1.2,0.4,2.1,1,2.7c0.7,0.6,1.6,0.9,2.9,0.9c1.2,0,2.1-0.2,2.6-0.6 c0.5-0.4,0.8-1.1,0.8-2c0-0.9-0.2-1.6-0.6-1.9c-0.4-0.4-1.1-0.7-2.2-0.9l-1.9-0.4c-1.6-0.3-2.7-0.8-3.3-1.5 c-0.6-0.7-0.9-1.8-0.9-3.2c0-1.6,0.4-2.7,1.1-3.6c0.8-0.8,2.1-1.2,3.9-1.2c2,0,3.3,0.6,4.2,1.8V110h1.7v4.5h-1.7 c-0.2-2-1.4-2.9-3.7-2.9c-1.2,0-2,0.2-2.5,0.7c-0.5,0.5-0.7,1.2-0.7,2.2c0,0.8,0.2,1.4,0.5,1.8c0.3,0.4,1.1,0.6,2.2,0.9 l1.8,0.4c1.6,0.3,2.8,0.8,3.4,1.5c0.7,0.7,1,1.7,1,3.2c0,1.6-0.4,2.8-1.2,3.6c-0.8,0.8-2.2,1.2-4.1,1.2c-2.1,0-3.6-0.7-4.5-2 v1.6H116.1z"/>
        </g>
      </g>
    </g>
  </switch>
</svg>
