<?xml version="1.0" encoding="utf-8"?>
<!-- Generator: Adobe Illustrator 22.0.1, SVG Export Plug-In . SVG Version: 6.00 Build 0)  -->
<svg version="1.1" id="Layer_1" xmlns="http://www.w3.org/2000/svg" xmlns:xlink="http://www.w3.org/1999/xlink" x="0px" y="0px"
	 viewBox="0 0 400 246" style="enable-background:new 0 0 400 246;" xml:space="preserve">
<style type="text/css">
	.st0{fill:none;}
	.st1{fill:none;stroke:#FFFFFF;stroke-width:6;stroke-linejoin:round;stroke-miterlimit:10;}
</style>
<g>
	<rect class="st0" width="400" height="246"/>
	<path class="st1" d="M140,107.5v61.9c0,6.6,5.4,12,12,12l0,0c6.6,0,12-5.4,12-12v-61.9"/>
	<path class="st1" d="M164,107.5v75.3c0,6.6,5.4,12,12,12l0,0c6.6,0,12-5.4,12-12v-75.3"/>
	<path class="st1" d="M188,107.5v88.7c0,6.6,5.4,12,12,12l0,0c6.6,0,12-5.4,12-12v-88.7"/>
	<path class="st1" d="M212,107.5v75.3c0,6.6,5.4,12,12,12l0,0c6.6,0,12-5.4,12-12v-75.3"/>
	<path class="st1" d="M260,96.8V78.7c0-8.6-1.8-17-5.3-24.8l-10.6-23.4c-4.9-10.9-15.8-17.9-27.7-17.9h-46
		C153.6,12.5,140,26.1,140,43v126c0,6.6,5.2,12.3,11.8,12.4c6.7,0.1,12.2-5.3,12.2-12v13c0,6.6,5.2,12.3,11.8,12.4
		c6.7,0.1,12.2-5.3,12.2-12v13c0,6.6,5.2,12.3,11.8,12.4c6.7,0.1,12.2-5.3,12.2-12v-13.4c0,6.6,5.4,12,12,12s12-5.4,12-12"/>
	<line class="st1" x1="236" y1="80.5" x2="236" y2="117.6"/>
	<polyline class="st1" points="236,96.8 280.3,96.8 280.3,233.5 119.7,233.5 119.7,96.8 140,96.8 	"/>
	<polyline class="st1" points="280.3,217.3 322.2,217.3 322.2,233.5 77.8,233.5 77.8,217.3 119.7,217.3 	"/>
</g>
</svg>
