<?xml version="1.0" encoding="utf-8"?>
<!-- Generator: Adobe Illustrator 22.0.1, SVG Export Plug-In . SVG Version: 6.00 Build 0)  -->
<svg version="1.1" id="Layer_1" xmlns="http://www.w3.org/2000/svg" xmlns:xlink="http://www.w3.org/1999/xlink" x="0px" y="0px"
	 viewBox="0 0 120 70" style="enable-background:new 0 0 120 70;" xml:space="preserve">
<style type="text/css">
	.st0{fill:none;}
	.st1{fill:#FBCC3C;}
</style>
<g>
	<rect y="0" class="st0" width="119" height="69.4"/>
	<path class="st1" d="M80.8,26.7H38.2c-2.8,0-5.2,2.3-5.2,5.2v27.4c0,2.8,2.3,5.2,5.2,5.2h42.6c2.8,0,5.2-2.3,5.2-5.2V31.9
		C86,29,83.7,26.7,80.8,26.7z M64.7,55.7H54.3l2.6-9.3c-1.9-0.9-3.3-2.9-3.3-5.2c0-3.2,2.6-5.8,5.8-5.8s5.8,2.6,5.8,5.8
		c0,2.3-1.3,4.2-3.3,5.2L64.7,55.7z"/>
	<path class="st1" d="M77.9,30.5h-7V19.8c0-6.3-5.1-11.4-11.4-11.4s-11.4,5.1-11.4,11.4v10.6h-7V19.8c0-10.1,8.2-18.4,18.4-18.4
		s18.4,8.2,18.4,18.4V30.5z"/>
</g>
</svg>
