<?xml version="1.0" encoding="utf-8"?>
<!-- Generator: Adobe Illustrator 22.0.1, SVG Export Plug-In . SVG Version: 6.00 Build 0)  -->
<svg version="1.1" id="Layer_1" xmlns="http://www.w3.org/2000/svg" xmlns:xlink="http://www.w3.org/1999/xlink" x="0px" y="0px"
	 viewBox="0 0 400 246" style="enable-background:new 0 0 400 246;" xml:space="preserve">
<style type="text/css">
	.st0{fill:none;}
	.st1{fill:none;stroke:#FFFFFF;stroke-width:6;stroke-linecap:square;stroke-linejoin:round;stroke-miterlimit:10;}
</style>
<g>
	<rect class="st0" width="400" height="246"/>
	<path class="st1" d="M186.9,55.8H76.2C56.7,55.8,41,71.5,41,90.9V145c0,19.4,15.7,35.2,35.2,35.2h33.4c-1.2,23-14.7,42.7-34.3,52.5
		c26.7-8.1,48.9-27.4,60.6-52.5h51c19.4,0,35.2-15.7,35.2-35.2V90.9C222,71.5,206.3,55.8,186.9,55.8z"/>
	<path class="st1" d="M210.7,13.3h113.1c19.4,0,35.2,15.7,35.2,35.2v54.1c0,19.4-15.7,35.2-35.2,35.2h-33.4
		c1.2,23,14.7,42.7,34.3,52.5c-26.7-8.1-48.9-27.4-60.6-52.5h-53.4c-19.4,0-35.2-15.7-35.2-35.2V48.5
		C175.6,29,191.3,13.3,210.7,13.3z"/>
</g>
</svg>
