<?xml version="1.0" encoding="utf-8"?>
<!-- Generator: Adobe Illustrator 22.0.1, SVG Export Plug-In . SVG Version: 6.00 Build 0)  -->
<svg version="1.1" id="Layer_1" xmlns="http://www.w3.org/2000/svg" xmlns:xlink="http://www.w3.org/1999/xlink" x="0px" y="0px"
	 viewBox="0 0 400 246" style="enable-background:new 0 0 400 246;" xml:space="preserve">
<style type="text/css">
	.st0{fill:none;}
	.st1{fill:none;stroke:#FFFFFF;stroke-width:6;stroke-linejoin:round;stroke-miterlimit:10;}
	.st2{fill:#FFFFFF;}
</style>
<g>
	<rect class="st0" width="400" height="246"/>
	<circle class="st1" cx="200" cy="123" r="101.2"/>
	<g>
		<g>
			<line class="st1" x1="200" y1="21.8" x2="200" y2="40.4"/>
			<line class="st1" x1="200" y1="224.2" x2="200" y2="205.6"/>
		</g>
		<g>
			<line class="st1" x1="98.8" y1="123" x2="117.4" y2="123"/>
			<line class="st1" x1="301.2" y1="123" x2="282.6" y2="123"/>
		</g>
	</g>
	<g>
		<g>
			<line class="st1" x1="112.4" y1="72.4" x2="128.4" y2="81.7"/>
			<line class="st1" x1="287.6" y1="173.6" x2="271.6" y2="164.3"/>
		</g>
		<g>
			<line class="st1" x1="149.4" y1="210.6" x2="158.7" y2="194.6"/>
			<line class="st1" x1="250.6" y1="35.4" x2="241.3" y2="51.4"/>
		</g>
	</g>
	<g>
		<g>
			<line class="st1" x1="287.6" y1="72.4" x2="271.6" y2="81.7"/>
			<line class="st1" x1="112.4" y1="173.6" x2="128.4" y2="164.3"/>
		</g>
		<g>
			<line class="st1" x1="149.4" y1="35.4" x2="158.7" y2="51.4"/>
			<line class="st1" x1="250.6" y1="210.6" x2="241.3" y2="194.6"/>
		</g>
	</g>
	<circle class="st2" cx="200" cy="123" r="9.4"/>
	<line class="st1" x1="248.4" y1="74.6" x2="200" y2="123"/>
	<line class="st1" x1="168.7" y1="91.7" x2="200" y2="123"/>
</g>
</svg>
