<svg xmlns="http://www.w3.org/2000/svg" id="logo-mobile" viewBox="100.4625015258789 9.487844467163086 49.074989318847656 30.853113174438477">
  <style>
    .st0{fill:#006fa0}.st1{fill:#004064}.st2{fill:#fff}
  </style>
  <switch>
    <g>
      <path d="M116.1 20c-.2-.5-.4-.9-.8-1.1-.2-.2-.4-.5-.4-.8 0-.6-.3-1.2-.8-1.7-.8-.8-1.9-1-2.5-.4l4.4-4c4.7 4 4.3 8.1 4.3 8.1-.9 2-2.3 2.6-3.4 2.7-.6 0-1-.5-.8-1 .2-.6.2-1.2 0-1.8z" class="st0"></path>
      <path d="M122.7 17.4l-1.3-2-4 2.6 4.3 6.7c1 1.5 2 2.9 3.3 4.1l.4.4c2.9 3 5 6.6 6.1 10.6.1.5.7.7 1.1.4l2.9-1.9c.3-.2.4-.6.2-1-1.5-2.8-3.4-5.4-5.5-7.7l-4.3-4.7c-.9-1-1.6-2.1-2.2-3.3-.3-.6-.4-1.3-.4-2 .1-.6-.2-1.4-.6-2.2z" class="st1"></path>
      <ellipse cx="105.3" cy="22.2" class="st0" rx="2.2" ry="2.2"></ellipse>
      <path d="M100.8 14.4c-.3 0-.4.3-.3.5l9.4 14.6c.1.2.5.2.6-.1l.7-2.1-8.2-12.7-2.2-.2zM122.5 12.7l-1.5-2.3c-.6-.9-1.8-1.2-2.7-.6l-4.9 3.1c-2.3 1.5-5.1 2.2-7.9 1.9l-1-.1 7.2 11.1.3-1c.9-2.6 2.7-4.9 5-6.4l4.9-3.1c.9-.5 1.2-1.7.6-2.6z" class="st2"></path>
      <g>
        <path d="M133.9 20c.2-.5.4-.9.8-1.1.2-.2.4-.5.4-.8 0-.6.3-1.2.8-1.7.8-.8 1.9-1 2.5-.4l-4.4-4c-4.7 4-4.3 8.1-4.3 8.1.9 2 2.3 2.6 3.4 2.7.6 0 1-.5.8-1-.2-.6-.2-1.2 0-1.8z" class="st0"></path>
        <path d="M127.3 17.4l1.3-2 4 2.6-4.3 6.7c-1 1.5-2 2.9-3.3 4.1l-.4.4c-2.9 3-5 6.6-6.1 10.6-.1.5-.7.7-1.1.4l-2.9-1.9c-.3-.2-.4-.6-.2-1 1.5-2.8 3.4-5.4 5.5-7.7l4.3-4.7c.9-1 1.6-2.1 2.2-3.3.3-.6.4-1.3.4-2-.1-.6.2-1.4.6-2.2z" class="st1"></path>
        <ellipse cx="144.7" cy="22.2" class="st0" rx="2.2" ry="2.2"></ellipse>
        <path d="M149.2 14.4c.3 0 .4.3.3.5L140 29.5c-.1.2-.5.2-.6-.1l-.7-2.1 8.2-12.7 2.3-.2zM145.5 14.8l-1 .1c-2.8.3-5.6-.4-7.9-1.9l-4.9-3.1c-.9-.6-2.1-.3-2.7.6l-1.5 2.3c-.6.9-.3 2.1.6 2.7l4.9 3.1c2.3 1.5 4.1 3.8 5 6.4l.3 1 7.2-11.2z" class="st2"></path>
      </g>
    </g>
  </switch>
</svg>