<svg id="Layer_1" xmlns="http://www.w3.org/2000/svg" viewBox="0 0 80 80">  <style>    .st1{fill:#004064}.st2{fill:#fff}  </style>  <circle cx="40" cy="40" r="40" fill="#2cb1d8"></circle>  <path class="st1" d="M54.9 16.8l-2-2c-1-1.1-2.3-1.9-3.8-2.6L38.2 12 23.7 25.3l2 2h6.8c0-2.8.7-4.8 2.1-6.3 1.4-1.4 3.8-2.1 7.1-2.1 2.4 0 4.4.4 5.8 1.3 1.1 1.7 3.5 5.5 3.5 8.4 0 3.8-.9 6.5-2.6 8.1-1.7 1.5-4.3 2.5-7.6 2.9h-3.1l-2 13.7 2 2h5l.9-10.1 1.1-.2c4.9-.7 8.5-2.2 10.8-4.4C57.8 38.4 59 34.5 59 29c-.1-5.4-1.4-9.4-4.1-12.2zM44.7 63.2c-.1-.5-.4-1-.8-1.5l-2-2-7.2 8.2 2 2c.1.2.3.3.5.5.7.6 1.7.9 3.1.9 1.4 0 2.5-.3 3.2-.9.7-.6 1.2-1.3 1.3-1.9.1-.6.2-1.5.2-2.6-.1-1.2-.2-2-.3-2.7z"></path>  <path class="st2" d="M38.2 69.2c1.4 0 2.5-.3 3.2-.9.7-.6 1.2-1.3 1.3-1.9.1-.6.2-1.5.2-2.6s-.1-2-.2-2.6c-.1-.5-.4-1-.8-1.4-.1-.2-.3-.3-.5-.5-.7-.6-1.8-.9-3.2-.9-1.3 0-2.4.3-3.1.9-.7.6-1.1 1.2-1.3 1.9-.2.7-.2 1.6-.2 2.6 0 1.1.1 2 .2 2.7 0 .2.1.3.2.4 0 0 0 .1.1.1 0 .1.1.2.2.3 0 .1.1.1.1.2.1.1.2.2.2.3l.1.1c.1.1.3.3.5.4.6.6 1.6.9 3 .9zM41.5 43.1l-.9 10.1h-5L35 38.5l3.9-.5c3.4-.4 5.9-1.4 7.6-2.9 1.7-1.5 2.6-4.2 2.6-8.1 0-3.3-.7-5.8-2.1-7.6-1.4-1.8-3.8-2.7-7.3-2.7-3.3 0-5.7.7-7.1 2.1-1.4 1.4-2.1 3.5-2.1 6.3h-6.8c0-4.8 1.3-8.4 3.8-10.9s6.6-3.7 12.2-3.7c6.2 0 10.6 1.4 13.3 4.1 2.7 2.8 4 6.8 4 12.2 0 5.5-1.2 9.4-3.5 11.6-2.3 2.2-5.9 3.7-10.8 4.4l-1.2.3z"></path></svg>