<svg xmlns="http://www.w3.org/2000/svg" xmlns:xlink="http://www.w3.org/1999/xlink" id="Layer_1" viewBox="0 0 32 32">
  <style>
    .st2{fill:#ffc600}.st4{fill:#2cb1d8}.st6{fill:#fff}.st7{fill:#004064}
  </style>
  <switch>
    <g>
      <defs>
        <circle id="SVGID_1_" cx="16" cy="16" r="16"/>
      </defs>
      <clipPath id="SVGID_2_">
        <use overflow="visible" xlink:href="#SVGID_1_"/>
      </clipPath>
      <g clip-path="url(#SVGID_2_)">
        <circle cx="16" cy="16" r="16" fill="#006fa0"/>
        <path d="M24.9 13.2c0-4.9-4-8.9-9-8.9s-9 4.3-8.9 9.3c.1 2.9 1 5.8 2.5 7.9 2 2.9 3.1 6.4 3.1 10v4.7h6.6v-4.6c0-3.5 1-7 3.1-9.9 1.7-2.4 2.6-5.4 2.6-8.5z" class="st2"/>
        <defs>
          <path id="SVGID_3_" d="M24.9 13.2c0 6.3-4 12.2-8.9 12.2s-8.9-6-8.9-12.2c0-4.9 4-8.9 8.9-8.9s8.9 4 8.9 8.9z"/>
        </defs>
        <clipPath id="SVGID_4_">
          <use overflow="visible" xlink:href="#SVGID_3_"/>
        </clipPath>
        <g clip-path="url(#SVGID_4_)">
          <path d="M24.9 13.2c0 6.3-4 12.2-8.9 12.2s-8.9-6-8.9-12.2c0-4.9 4-8.9 8.9-8.9s8.9 4 8.9 8.9z" class="st2"/>
          <circle cx="24.4" cy=".2" r="12" class="st4"/>
          <circle cx="6.7" cy="1.9" r="10.2" class="st4"/>
        </g>
        <g>
          <path d="M16.1 22.4c.2-.4.3-.8.3-1.3 0-1.4-1.2-2.6-2.6-2.6-1.2 0-2.3.9-2.5 2.1-.3 1.5-1.5 2.8-3 3.2l-.9.2c.3.2.5.4.8.6 2.8 1.6 6.3.6 7.9-2.2 0 .1 0 .1 0 0z" class="st4"/>
          <path d="M15.9 22.4c-.2-.4-.3-.8-.3-1.3 0-1.4 1.2-2.6 2.6-2.6 1.2 0 2.3.9 2.5 2.1.3 1.5 1.5 2.8 3 3.2l.9.2c-.3.2-.5.4-.8.6-2.8 1.6-6.3.6-7.9-2.2 0 .1 0 .1 0 0z" class="st4"/>
        </g>
        <g>
          <defs>
            <path id="SVGID_5_" d="M9.5 14.7c0 3 2.9 5.4 6.5 5.4s6.5-2.4 6.5-5.4v-.5h-13v.5z"/>
          </defs>
          <clipPath id="SVGID_6_">
            <use overflow="visible" xlink:href="#SVGID_5_"/>
          </clipPath>
          <g clip-path="url(#SVGID_6_)">
            <circle cx="19.2" cy="14.7" r="2.3" class="st6"/>
            <circle cx="19.2" cy="14.7" r="1.1" class="st7"/>
            <g>
              <circle cx="12.8" cy="14.7" r="2.3" class="st6"/>
              <circle cx="12.8" cy="14.7" r="1.1" class="st7"/>
            </g>
          </g>
        </g>
      </g>
    </g>
  </switch>
</svg>
