<svg xmlns="http://www.w3.org/2000/svg" xmlns:xlink="http://www.w3.org/1999/xlink" id="Layer_1" viewBox="0 0 32 32">
  <style>
    .st1{fill:#ffc600}.st3{fill:none}.st5{fill:#004064}.st7{fill:#fff}
  </style>
  <switch>
    <g>
      <circle cx="16" cy="16" r="16" fill="#a3006c"/>
      <path d="M16 6.4c5.4 0 9.9 4.4 9.9 9.9v5H6.1v-5c0-5.5 4.5-9.9 9.9-9.9z" class="st1"/>
      <circle cx="16" cy="16.3" r="8.2" fill="#2cb1d8"/>
      <path d="M13.2 17.3l-2 2M13.2 17.3l-2.6 1.1M13.2 17.3h-2.8M18.8 17.3l2 2M18.8 17.3l2.6 1.1M18.8 17.3h2.8" class="st3"/>
      <circle cx="16" cy="21.8" r="1.4" fill="#ff4671"/>
      <path d="M13.5 21.6h5v.3h-5z" class="st5"/>
      <g>
        <defs>
          <path id="SVGID_1_" d="M10.3 16.8h11.4v3H10.3z"/>
        </defs>
        <clipPath id="SVGID_2_">
          <use overflow="visible" xlink:href="#SVGID_1_"/>
        </clipPath>
        <g clip-path="url(#SVGID_2_)">
          <circle cx="18.8" cy="17.3" r="2.1" class="st7"/>
          <circle cx="18.8" cy="17.3" r="1" class="st5"/>
          <g>
            <circle cx="13.2" cy="17.3" r="2.1" class="st7"/>
            <circle cx="13.2" cy="17.3" r="1" class="st5"/>
          </g>
        </g>
      </g>
      <g>
        <defs>
          <path id="SVGID_3_" d="M16 6.4c-5.4 0-9.9 4.4-9.9 9.9v5h19.7v-5c.1-5.5-4.4-9.9-9.8-9.9z"/>
        </defs>
        <clipPath id="SVGID_4_">
          <use overflow="visible" xlink:href="#SVGID_3_"/>
        </clipPath>
        <g clip-path="url(#SVGID_4_)">
          <circle cx="23.2" cy="4.4" r="11" class="st1"/>
          <circle cx="6.9" cy="6" r="9.4" class="st1"/>
        </g>
      </g>
    </g>
  </switch>
</svg>
