<svg xmlns="http://www.w3.org/2000/svg" xmlns:xlink="http://www.w3.org/1999/xlink" id="Layer_1" viewBox="0 0 32 32">
  <style>
    .st2{fill:#004064}.st3{fill:#fff}
  </style>
  <switch>
    <g>
      <circle cx="16" cy="16" r="16" fill="#2cb1d8"/>
      <path fill="#00eb9b" d="M7.6 14.8c-.5.9-.8 1.7-.9 2.6h18.6c-.2-.9-.5-1.8-.9-2.6l-1.7-3.5H9.3l-1.7 3.5z"/>
      <path d="M15.6 28.9h.8c6.1-.2 10.1-5.9 9-11.5H6.7C5.6 23 9.6 28.7 15.6 28.9z" class="st2"/>
      <g>
        <path d="M5.4 10.5c0 .4.3.7.7.7h19.7c.4 0 .7-.3.7-.7 0-.4-.3-.7-.7-.7H6.1c-.4 0-.7.3-.7.7z" class="st2"/>
        <path d="M10 9.8h12l-.7-1.4H10.7z" class="st3"/>
        <path d="M12.8 4l-2.1 4.3h10.6L19.2 4c-.1-.3-.4-.4-.7-.4h-5c-.3 0-.6.2-.7.4z" class="st2"/>
      </g>
      <g>
        <path fill="#00da8c" d="M17.9 22.2H14c-.9 0-1.6-.7-1.6-1.6S13.1 19 14 19h3.9c.9 0 1.6.7 1.6 1.6s-.7 1.6-1.6 1.6z"/>
        <path d="M17.9 20.9H14c-.2 0-.3-.1-.3-.3s.1-.3.3-.3h3.9c.2 0 .3.1.3.3s-.1.3-.3.3z" class="st2"/>
        <g>
          <defs>
            <path id="SVGID_1_" d="M9.4 14.4c0 2.3 3 4.1 6.6 4.1 3.6 0 6.6-1.8 6.6-4.1V14H9.4v.4z"/>
          </defs>
          <clipPath id="SVGID_2_">
            <use overflow="visible" xlink:href="#SVGID_1_"/>
          </clipPath>
          <g clip-path="url(#SVGID_2_)">
            <circle cx="19.2" cy="14.5" r="2.3" class="st3"/>
            <circle cx="19.2" cy="14.5" r="1.1" class="st2"/>
            <g>
              <circle cx="12.8" cy="14.5" r="2.3" class="st3"/>
              <circle cx="12.8" cy="14.5" r="1.1" class="st2"/>
            </g>
          </g>
        </g>
      </g>
    </g>
  </switch>
</svg>
