<svg xmlns="http://www.w3.org/2000/svg" id="Layer_1" viewBox="0 0 32 32">
  <style>
    .st1{fill:#ff4671}.st2{fill:#fff}.st3{fill:#004064}
  </style>
  <switch>
    <g>
      <circle cx="16" cy="16" r="16" fill="#ffc600"/>
      <circle cx="16" cy="15.3" r="7" class="st1"/>
      <circle cx="18.7" cy="16.1" r="1.9" class="st2"/>
      <circle cx="18.7" cy="16.1" r=".9" class="st3"/>
      <circle cx="13.3" cy="16.1" r="1.9" class="st2"/>
      <circle cx="13.3" cy="16.1" r=".9" class="st3"/>
      <path d="M10.5 13.2h11V15h-11z" class="st1"/>
      <ellipse cx="16" cy="23.5" class="st3" rx="7" ry="6.3"/>
      <path d="M21.2 15.8H10.8c-.4 0-.8-.3-.8-.8s.3-.8.8-.8h10.3c.4 0 .8.3.8.8s-.3.8-.7.8z" class="st3"/>
      <g>
        <path d="M17.7 23.6h-3.3c-.7 0-1.3-.6-1.3-1.3s.6-1.3 1.3-1.3h3.3c.7 0 1.3.6 1.3 1.3s-.6 1.3-1.3 1.3z" class="st1"/>
        <path d="M17.7 22.6h-3.3c-.2 0-.3-.1-.3-.3s.1-.3.3-.3h3.3c.2 0 .3.1.3.3s-.2.3-.3.3z" class="st3"/>
      </g>
      <path d="M20.2 5.3c-.7.2-1.4.5-2 1-.2-1.8-1-3.4-2.2-4.6-1.2 1.2-2 2.8-2.2 4.6-.6-.4-1.3-.8-2-1-.4 1.5-.2 3.1.6 4.5s2.1 2.4 3.6 2.8c1.5-.4 2.8-1.3 3.6-2.8.8-1.4 1-3 .6-4.5z" class="st3"/>
    </g>
  </switch>
</svg>
