<svg xmlns="http://www.w3.org/2000/svg" xmlns:xlink="http://www.w3.org/1999/xlink" id="Layer_1" viewBox="0 0 32 32">
  <style>
    .st0{fill:#ff4671}.st1{fill:#004064}.st3{fill:none}.st5{fill:#fff}
  </style>
  <switch>
    <g>
      <circle cx="16" cy="16" r="16" class="st0"/>
      <circle cx="24.1" cy="14.2" r="3.7" class="st1"/>
      <path d="M27.8 19.3c.2-2-1.2-3.8-3.2-4h-.5c-.9.2-1.8.6-2.5 1.1-1.2.9-2 2.3-2.1 3.8-.1.6 0 1.2.1 1.8.5 2.4 2.4 4.3 5 4.5h.4c-.7-.5-1.1-1.4-1-2.3.1-1 .8-1.8 1.7-2.1 1.1-.4 2-1.5 2.1-2.8z" class="st1"/>
      <circle cx="7.9" cy="14.2" r="3.7" class="st1"/>
      <path d="M4.2 19.3c-.2-2 1.2-3.8 3.2-4h.5c.9.2 1.8.6 2.5 1.1 1.2.9 2 2.3 2.1 3.8.1.6 0 1.2-.1 1.8-.5 2.4-2.4 4.3-5 4.5H7c.7-.5 1.1-1.4 1-2.3-.1-1-.8-1.8-1.7-2.1-1.1-.4-2-1.5-2.1-2.8z" class="st1"/>
      <g>
        <circle cx="16" cy="14.7" r="7.7" fill="#ffc600"/>
        <path d="M13.3 15.6l-1.8 1.9M13.3 15.6l-2.4 1M13.3 15.6h-2.6M18.7 15.6l1.8 1.9M18.7 15.6l2.4 1M18.7 15.6h2.6" class="st3"/>
        <circle cx="16" cy="19.8" r="1.3" class="st0"/>
        <path d="M13.6 19.7h4.7v.3h-4.7z" class="st1"/>
        <g>
          <defs>
            <path id="SVGID_1_" d="M21.4 15.2H10.6V18h10.8z"/>
          </defs>
          <clipPath id="SVGID_2_">
            <use overflow="visible" xlink:href="#SVGID_1_"/>
          </clipPath>
          <g clip-path="url(#SVGID_2_)">
            <circle cx="18.7" cy="15.6" r="2" class="st5"/>
            <circle cx="18.7" cy="15.6" r=".9" class="st1"/>
            <g>
              <circle cx="13.3" cy="15.6" r="2" class="st5"/>
              <circle cx="13.3" cy="15.6" r=".9" class="st1"/>
            </g>
          </g>
        </g>
        <g>
          <defs>
            <path id="SVGID_3_" d="M16 5.4c5.1 0 9.3 4.2 9.3 9.3v1L9.4 19.8l-2.7-4.2v-1c0-5.1 4.2-9.2 9.3-9.2z"/>
          </defs>
          <clipPath id="SVGID_4_">
            <use overflow="visible" xlink:href="#SVGID_3_"/>
          </clipPath>
          <path fill="#004064" d="M-2.1 3.2h28.7v10.1H-2.1z" clip-path="url(#SVGID_4_)"/>
        </g>
      </g>
    </g>
  </switch>
</svg>
