<svg xmlns="http://www.w3.org/2000/svg" xmlns:xlink="http://www.w3.org/1999/xlink" id="Layer_1" viewBox="0 0 32 32">
  <style>
    .st1{fill:#ff4671}.st3{fill:none}.st4{fill:#004064}.st6{fill:#fff}
  </style>
  <switch>
    <g>
      <circle cx="16" cy="16" r="16" fill="#5b4d83"/>
      <path d="M14.1 17.8H6.2v.5c0 5.3 3.2 9.9 7.9 11.8V17.8zM17.9 17.8h7.9v.5c0 5.3-3.2 9.9-7.9 11.8V17.8zM16 4.6c5.4 0 9.8 4.4 9.8 9.8v3.4H6.2v-3.4c0-5.4 4.4-9.8 9.8-9.8z" class="st1"/>
      <circle cx="16" cy="14.4" r="8.2" fill="#ffc600"/>
      <path d="M13.2 15.4l-2 2M13.2 15.4l-2.6 1.1M13.2 15.4h-2.8M18.8 15.4l2 2M18.8 15.4l2.6 1.1M18.8 15.4h2.8" class="st3"/>
      <circle cx="16" cy="19.8" r="1.4" class="st1"/>
      <path d="M13.5 19.7h5v.3h-5z" class="st4"/>
      <g>
        <defs>
          <path id="SVGID_1_" d="M10.3 14.9h11.3v3H10.3z"/>
        </defs>
        <clipPath id="SVGID_2_">
          <use overflow="visible" xlink:href="#SVGID_1_"/>
        </clipPath>
        <g clip-path="url(#SVGID_2_)">
          <circle cx="18.8" cy="15.4" r="2.1" class="st6"/>
          <circle cx="18.8" cy="15.4" r="1" class="st4"/>
          <g>
            <circle cx="13.2" cy="15.4" r="2.1" class="st6"/>
            <circle cx="13.2" cy="15.4" r="1" class="st4"/>
          </g>
        </g>
      </g>
      <g>
        <defs>
          <path id="SVGID_3_" d="M16 4.6c-5.4 0-9.8 4.4-9.8 9.8v5h19.6v-5c0-5.4-4.4-9.8-9.8-9.8z"/>
        </defs>
        <clipPath id="SVGID_4_">
          <use overflow="visible" xlink:href="#SVGID_3_"/>
        </clipPath>
        <g clip-path="url(#SVGID_4_)">
          <circle cx="23.6" cy="2.6" r="11" class="st1"/>
          <circle cx="7.5" cy="4.1" r="9.3" class="st1"/>
        </g>
      </g>
    </g>
  </switch>
</svg>
