<svg xmlns="http://www.w3.org/2000/svg" xmlns:xlink="http://www.w3.org/1999/xlink" id="Layer_1" viewBox="0 0 32 32">
  <style>
    .st2{fill:#00da8c}.st3{fill:#004064}.st5{fill:#fff}
  </style>
  <switch>
    <g>
      <circle cx="16" cy="16" r="16" fill="#ff4671"/>
      <circle cx="16" cy="16" r="10.4" fill="none"/>
      <path d="M26.4 16c0-5.7-4.7-10.4-10.4-10.4S5.6 10.3 5.6 16v1h20.7c.1-.3.1-.7.1-1z" class="st2"/>
      <path d="M16 26.4c5.4 0 9.8-4.1 10.4-9.4H5.6c.6 5.3 5 9.4 10.4 9.4z" class="st3"/>
      <path d="M18.2 22.2h-4.4c-1 0-1.8-.8-1.8-1.8s.8-1.8 1.8-1.8h4.4c1 0 1.8.8 1.8 1.8s-.8 1.8-1.8 1.8z" class="st2"/>
      <path d="M18.2 20.8h-4.4c-.2 0-.4-.2-.4-.4s.2-.4.4-.4h4.4c.2 0 .4.2.4.4s-.2.4-.4.4z" class="st3"/>
      <g>
        <defs>
          <path id="SVGID_1_" d="M5.6 14c0 5.7 4.7 10.4 10.4 10.4S26.4 19.7 26.4 14v-1H5.6v1z"/>
        </defs>
        <clipPath id="SVGID_2_">
          <use overflow="visible" xlink:href="#SVGID_1_"/>
        </clipPath>
        <g clip-path="url(#SVGID_2_)">
          <circle cx="19.6" cy="13.5" r="2.6" class="st5"/>
          <circle cx="19.6" cy="13.5" r="1.2" class="st3"/>
          <g>
            <circle cx="12.4" cy="13.5" r="2.6" class="st5"/>
            <circle cx="12.4" cy="13.5" r="1.2" class="st3"/>
          </g>
        </g>
      </g>
    </g>
  </switch>
</svg>
