<svg xmlns="http://www.w3.org/2000/svg" xmlns:xlink="http://www.w3.org/1999/xlink" id="Layer_1" viewBox="0 0 32 32">
  <style>
    .st1{fill:#004064}.st3{fill:none}.st6{fill:#fff}
  </style>
  <switch>
    <g>
      <circle cx="16" cy="16" r="16" fill="#ffc600"/>
      <path d="M6.1 15.5H14v.5c0 5.4-3.3 9.9-7.9 11.9V15.5zM25.9 15.5H18v.5c0 5.4 3.3 9.9 7.9 11.9V15.5zM16 4.3c5.4 0 9.9 4.4 9.9 9.9v1.3H6.1v-1.3c0-5.5 4.5-9.9 9.9-9.9z" class="st1"/>
      <circle cx="16" cy="14.2" r="8.2" fill="#ff4671"/>
      <path d="M13.2 15.2l-2 2M13.2 15.2l-2.6 1.1M13.2 15.2h-2.8M18.8 15.2l2 2M18.8 15.2l2.6 1.1M18.8 15.2h2.8" class="st3"/>
      <circle cx="16" cy="19.7" r="1.4" fill="#188383"/>
      <path d="M13.5 19.5h5v.3h-5z" class="st1"/>
      <g>
        <defs>
          <path id="SVGID_1_" d="M10.3 14.7h11.4v3H10.3z"/>
        </defs>
        <clipPath id="SVGID_2_">
          <use overflow="visible" xlink:href="#SVGID_1_"/>
        </clipPath>
        <g clip-path="url(#SVGID_2_)">
          <circle cx="18.8" cy="15.2" r="2.1" class="st6"/>
          <circle cx="18.8" cy="15.2" r="1" class="st1"/>
          <g>
            <circle cx="13.2" cy="15.2" r="2.1" class="st6"/>
            <circle cx="13.2" cy="15.2" r="1" class="st1"/>
          </g>
        </g>
      </g>
      <g>
        <defs>
          <path id="SVGID_3_" d="M16 4.3c-5.4 0-9.9 4.4-9.9 9.9v5h19.7v-5c.1-5.5-4.4-9.9-9.8-9.9z"/>
        </defs>
        <clipPath id="SVGID_4_">
          <use overflow="visible" xlink:href="#SVGID_3_"/>
        </clipPath>
        <g clip-path="url(#SVGID_4_)">
          <circle cx="23.2" cy="2.4" r="11" class="st1"/>
          <circle cx="6.9" cy="3.9" r="9.4" class="st1"/>
        </g>
      </g>
    </g>
  </switch>
</svg>
